M48
; DRILL file {KiCad 9.0.5-1.fc42} date 2025-11-13T15:41:22-0500
; FORMAT={-:-/ absolute / metric / decimal}
; #@! TF.CreationDate,2025-11-13T15:41:22-05:00
; #@! TF.GenerationSoftware,Kicad,Pcbnew,9.0.5-1.fc42
; #@! TF.FileFunction,Plated,1,2,PTH
FMAT,2
METRIC
; #@! TA.AperFunction,Plated,PTH,ComponentDrill
T1C0.500
; #@! TA.AperFunction,Plated,PTH,ComponentDrill
T2C0.800
; #@! TA.AperFunction,Plated,PTH,ComponentDrill
T3C1.000
; #@! TA.AperFunction,Plated,PTH,ComponentDrill
T4C1.100
; #@! TA.AperFunction,Plated,PTH,ComponentDrill
T5C1.143
; #@! TA.AperFunction,Plated,PTH,ComponentDrill
T6C1.300
%
G90
G05
T1
X150.048Y-137.927
T2
X76.0Y-97.0
X76.0Y-104.62
X77.0Y-110.42
X77.0Y-120.58
X78.54Y-97.0
X78.54Y-104.62
X81.08Y-97.0
X81.08Y-104.62
X85.0Y-109.92
X85.0Y-120.08
X90.5Y-97.5
X90.5Y-105.12
X93.0Y-110.0
X93.0Y-120.16
X93.04Y-97.5
X93.04Y-105.12
X95.58Y-97.5
X95.58Y-105.12
X101.5Y-110.5
X101.5Y-120.66
X105.0Y-97.5
X105.0Y-105.12
X107.54Y-97.5
X107.54Y-105.12
X110.08Y-97.5
X110.08Y-105.12
X116.42Y-116.5
X119.96Y-97.685
X119.96Y-105.305
X122.5Y-97.685
X122.5Y-105.305
X125.04Y-97.685
X125.04Y-105.305
X126.58Y-116.5
X128.685Y-83.96
X128.685Y-86.5
X128.685Y-89.04
X136.305Y-83.96
X136.305Y-86.5
X136.305Y-89.04
X143.5Y-73.76
X143.5Y-89.0
X146.428Y-114.927
X146.428Y-131.427
X150.048Y-142.307
X150.048Y-157.547
X157.048Y-142.307
X157.048Y-157.547
X160.0Y-73.76
X160.0Y-89.0
X161.668Y-114.927
X161.668Y-131.427
X164.048Y-142.307
X164.048Y-157.547
X167.548Y-114.927
X169.048Y-131.427
X178.0Y-74.14
X178.0Y-89.38
X182.788Y-114.927
X184.288Y-131.427
X192.5Y-91.5
X192.5Y-106.74
X192.548Y-112.807
X192.548Y-128.047
T3
X59.5Y-44.0
X59.5Y-71.0
X59.5Y-81.0
X60.0Y-58.5
X80.5Y-134.0
X82.0Y-60.88
X82.0Y-63.42
X82.0Y-65.96
X82.0Y-68.5
X82.0Y-71.04
X82.0Y-73.58
X82.0Y-76.12
X82.0Y-78.66
X82.0Y-81.2
X82.0Y-83.74
X83.04Y-134.0
X84.548Y-41.427
X85.58Y-134.0
X88.12Y-134.0
X89.5Y-60.96
X89.5Y-63.5
X89.5Y-66.04
X89.5Y-68.58
X89.5Y-71.12
X89.5Y-73.66
X89.5Y-76.2
X89.5Y-78.74
X89.5Y-81.28
X89.5Y-83.82
X97.96Y-129.0
X98.5Y-61.0
X98.5Y-63.54
X98.5Y-66.08
X98.5Y-68.62
X98.5Y-71.16
X98.5Y-73.7
X98.5Y-76.24
X98.5Y-78.78
X98.5Y-81.32
X98.5Y-83.86
X100.5Y-129.0
X103.04Y-129.0
X105.58Y-129.0
X107.5Y-61.0
X107.5Y-63.54
X107.5Y-66.08
X107.5Y-68.62
X107.5Y-71.16
X107.5Y-73.7
X107.5Y-76.24
X107.5Y-78.78
X107.5Y-81.32
X107.5Y-83.86
X108.088Y-39.927
X108.12Y-129.0
X115.5Y-61.0
X115.5Y-63.54
X115.5Y-66.08
X115.5Y-68.62
X115.5Y-71.16
X115.5Y-73.7
X115.5Y-76.24
X115.5Y-78.78
X115.5Y-81.32
X115.5Y-83.86
X121.088Y-39.927
X127.548Y-150.927
X132.548Y-75.427
X135.048Y-75.427
X135.525Y-126.2
X135.525Y-128.74
X135.525Y-131.28
X135.525Y-133.82
X144.0Y-66.38
X150.0Y-105.5
X150.048Y-74.927
X150.548Y-125.677
X152.548Y-74.927
X161.5Y-65.88
X167.548Y-75.427
X170.048Y-75.427
X179.0Y-65.88
X181.048Y-57.927
X183.588Y-57.927
T4
X156.798Y-102.677
X156.798Y-107.177
X157.298Y-121.177
X157.298Y-125.677
X163.298Y-102.677
X163.298Y-107.177
X163.798Y-121.177
X163.798Y-125.677
T5
X68.0Y-58.5
X68.0Y-61.04
X68.0Y-63.58
X68.0Y-71.0
X68.0Y-73.54
X68.0Y-76.08
X68.0Y-83.0
X68.0Y-85.54
X68.0Y-88.08
X68.048Y-46.387
X68.048Y-48.927
X68.048Y-51.467
X79.548Y-48.427
X82.088Y-48.427
X84.628Y-48.427
X103.008Y-47.927
X105.548Y-47.927
X108.088Y-47.927
X116.008Y-47.927
X118.548Y-47.927
X121.088Y-47.927
X135.0Y-58.88
X135.0Y-61.42
X135.0Y-63.96
X153.0Y-58.88
X153.0Y-61.42
X153.0Y-63.96
X169.952Y-59.413
X169.952Y-61.953
X169.952Y-64.493
T6
X109.548Y-154.927
X114.628Y-154.927
X119.708Y-154.927
X133.963Y-155.1
X139.043Y-155.1
X144.123Y-155.1
T3
G00X54.55Y-122.75
M15
G01X54.55Y-124.95
M16
G05
G00X59.05Y-128.65
M15
G01X56.85Y-128.65
M16
G05
G00X60.85Y-122.55
M15
G01X60.85Y-125.15
M16
G05
M30
