%TF.GenerationSoftware,KiCad,Pcbnew,9.0.5-1.fc42*%
%TF.CreationDate,2025-11-13T19:00:45-05:00*%
%TF.ProjectId,ProyectoDigital,50726f79-6563-4746-9f44-69676974616c,rev?*%
%TF.SameCoordinates,Original*%
%TF.FileFunction,Legend,Top*%
%TF.FilePolarity,Positive*%
%FSLAX46Y46*%
G04 Gerber Fmt 4.6, Leading zero omitted, Abs format (unit mm)*
G04 Created by KiCad (PCBNEW 9.0.5-1.fc42) date 2025-11-13 19:00:45*
%MOMM*%
%LPD*%
G01*
G04 APERTURE LIST*
%ADD10C,0.150000*%
%ADD11C,0.120000*%
%ADD12C,0.152400*%
G04 APERTURE END LIST*
D10*
X73124819Y-101571904D02*
X73934342Y-101571904D01*
X73934342Y-101571904D02*
X74029580Y-101524285D01*
X74029580Y-101524285D02*
X74077200Y-101476666D01*
X74077200Y-101476666D02*
X74124819Y-101381428D01*
X74124819Y-101381428D02*
X74124819Y-101190952D01*
X74124819Y-101190952D02*
X74077200Y-101095714D01*
X74077200Y-101095714D02*
X74029580Y-101048095D01*
X74029580Y-101048095D02*
X73934342Y-101000476D01*
X73934342Y-101000476D02*
X73124819Y-101000476D01*
X74124819Y-100000476D02*
X74124819Y-100571904D01*
X74124819Y-100286190D02*
X73124819Y-100286190D01*
X73124819Y-100286190D02*
X73267676Y-100381428D01*
X73267676Y-100381428D02*
X73362914Y-100476666D01*
X73362914Y-100476666D02*
X73410533Y-100571904D01*
X159214567Y-119584300D02*
X159357424Y-119631919D01*
X159357424Y-119631919D02*
X159595519Y-119631919D01*
X159595519Y-119631919D02*
X159690757Y-119584300D01*
X159690757Y-119584300D02*
X159738376Y-119536680D01*
X159738376Y-119536680D02*
X159785995Y-119441442D01*
X159785995Y-119441442D02*
X159785995Y-119346204D01*
X159785995Y-119346204D02*
X159738376Y-119250966D01*
X159738376Y-119250966D02*
X159690757Y-119203347D01*
X159690757Y-119203347D02*
X159595519Y-119155728D01*
X159595519Y-119155728D02*
X159405043Y-119108109D01*
X159405043Y-119108109D02*
X159309805Y-119060490D01*
X159309805Y-119060490D02*
X159262186Y-119012871D01*
X159262186Y-119012871D02*
X159214567Y-118917633D01*
X159214567Y-118917633D02*
X159214567Y-118822395D01*
X159214567Y-118822395D02*
X159262186Y-118727157D01*
X159262186Y-118727157D02*
X159309805Y-118679538D01*
X159309805Y-118679538D02*
X159405043Y-118631919D01*
X159405043Y-118631919D02*
X159643138Y-118631919D01*
X159643138Y-118631919D02*
X159785995Y-118679538D01*
X160119329Y-118631919D02*
X160357424Y-119631919D01*
X160357424Y-119631919D02*
X160547900Y-118917633D01*
X160547900Y-118917633D02*
X160738376Y-119631919D01*
X160738376Y-119631919D02*
X160976472Y-118631919D01*
X161309805Y-118727157D02*
X161357424Y-118679538D01*
X161357424Y-118679538D02*
X161452662Y-118631919D01*
X161452662Y-118631919D02*
X161690757Y-118631919D01*
X161690757Y-118631919D02*
X161785995Y-118679538D01*
X161785995Y-118679538D02*
X161833614Y-118727157D01*
X161833614Y-118727157D02*
X161881233Y-118822395D01*
X161881233Y-118822395D02*
X161881233Y-118917633D01*
X161881233Y-118917633D02*
X161833614Y-119060490D01*
X161833614Y-119060490D02*
X161262186Y-119631919D01*
X161262186Y-119631919D02*
X161881233Y-119631919D01*
X118643138Y-51377042D02*
X118738376Y-51424661D01*
X118738376Y-51424661D02*
X118833614Y-51519900D01*
X118833614Y-51519900D02*
X118976471Y-51662757D01*
X118976471Y-51662757D02*
X119071709Y-51710376D01*
X119071709Y-51710376D02*
X119166947Y-51710376D01*
X119119328Y-51472280D02*
X119214566Y-51519900D01*
X119214566Y-51519900D02*
X119309804Y-51615138D01*
X119309804Y-51615138D02*
X119357423Y-51805614D01*
X119357423Y-51805614D02*
X119357423Y-52138947D01*
X119357423Y-52138947D02*
X119309804Y-52329423D01*
X119309804Y-52329423D02*
X119214566Y-52424661D01*
X119214566Y-52424661D02*
X119119328Y-52472280D01*
X119119328Y-52472280D02*
X118928852Y-52472280D01*
X118928852Y-52472280D02*
X118833614Y-52424661D01*
X118833614Y-52424661D02*
X118738376Y-52329423D01*
X118738376Y-52329423D02*
X118690757Y-52138947D01*
X118690757Y-52138947D02*
X118690757Y-51805614D01*
X118690757Y-51805614D02*
X118738376Y-51615138D01*
X118738376Y-51615138D02*
X118833614Y-51519900D01*
X118833614Y-51519900D02*
X118928852Y-51472280D01*
X118928852Y-51472280D02*
X119119328Y-51472280D01*
X117833614Y-52138947D02*
X117833614Y-51472280D01*
X118071709Y-52519900D02*
X118309804Y-51805614D01*
X118309804Y-51805614D02*
X117690757Y-51805614D01*
X114690476Y-86084819D02*
X114690476Y-86799104D01*
X114690476Y-86799104D02*
X114642857Y-86941961D01*
X114642857Y-86941961D02*
X114547619Y-87037200D01*
X114547619Y-87037200D02*
X114404762Y-87084819D01*
X114404762Y-87084819D02*
X114309524Y-87084819D01*
X115119048Y-86180057D02*
X115166667Y-86132438D01*
X115166667Y-86132438D02*
X115261905Y-86084819D01*
X115261905Y-86084819D02*
X115500000Y-86084819D01*
X115500000Y-86084819D02*
X115595238Y-86132438D01*
X115595238Y-86132438D02*
X115642857Y-86180057D01*
X115642857Y-86180057D02*
X115690476Y-86275295D01*
X115690476Y-86275295D02*
X115690476Y-86370533D01*
X115690476Y-86370533D02*
X115642857Y-86513390D01*
X115642857Y-86513390D02*
X115071429Y-87084819D01*
X115071429Y-87084819D02*
X115690476Y-87084819D01*
X116309524Y-86084819D02*
X116404762Y-86084819D01*
X116404762Y-86084819D02*
X116500000Y-86132438D01*
X116500000Y-86132438D02*
X116547619Y-86180057D01*
X116547619Y-86180057D02*
X116595238Y-86275295D01*
X116595238Y-86275295D02*
X116642857Y-86465771D01*
X116642857Y-86465771D02*
X116642857Y-86703866D01*
X116642857Y-86703866D02*
X116595238Y-86894342D01*
X116595238Y-86894342D02*
X116547619Y-86989580D01*
X116547619Y-86989580D02*
X116500000Y-87037200D01*
X116500000Y-87037200D02*
X116404762Y-87084819D01*
X116404762Y-87084819D02*
X116309524Y-87084819D01*
X116309524Y-87084819D02*
X116214286Y-87037200D01*
X116214286Y-87037200D02*
X116166667Y-86989580D01*
X116166667Y-86989580D02*
X116119048Y-86894342D01*
X116119048Y-86894342D02*
X116071429Y-86703866D01*
X116071429Y-86703866D02*
X116071429Y-86465771D01*
X116071429Y-86465771D02*
X116119048Y-86275295D01*
X116119048Y-86275295D02*
X116166667Y-86180057D01*
X116166667Y-86180057D02*
X116214286Y-86132438D01*
X116214286Y-86132438D02*
X116309524Y-86084819D01*
X90534819Y-137309523D02*
X91249104Y-137309523D01*
X91249104Y-137309523D02*
X91391961Y-137357142D01*
X91391961Y-137357142D02*
X91487200Y-137452380D01*
X91487200Y-137452380D02*
X91534819Y-137595237D01*
X91534819Y-137595237D02*
X91534819Y-137690475D01*
X90630057Y-136880951D02*
X90582438Y-136833332D01*
X90582438Y-136833332D02*
X90534819Y-136738094D01*
X90534819Y-136738094D02*
X90534819Y-136499999D01*
X90534819Y-136499999D02*
X90582438Y-136404761D01*
X90582438Y-136404761D02*
X90630057Y-136357142D01*
X90630057Y-136357142D02*
X90725295Y-136309523D01*
X90725295Y-136309523D02*
X90820533Y-136309523D01*
X90820533Y-136309523D02*
X90963390Y-136357142D01*
X90963390Y-136357142D02*
X91534819Y-136928570D01*
X91534819Y-136928570D02*
X91534819Y-136309523D01*
X90963390Y-135738094D02*
X90915771Y-135833332D01*
X90915771Y-135833332D02*
X90868152Y-135880951D01*
X90868152Y-135880951D02*
X90772914Y-135928570D01*
X90772914Y-135928570D02*
X90725295Y-135928570D01*
X90725295Y-135928570D02*
X90630057Y-135880951D01*
X90630057Y-135880951D02*
X90582438Y-135833332D01*
X90582438Y-135833332D02*
X90534819Y-135738094D01*
X90534819Y-135738094D02*
X90534819Y-135547618D01*
X90534819Y-135547618D02*
X90582438Y-135452380D01*
X90582438Y-135452380D02*
X90630057Y-135404761D01*
X90630057Y-135404761D02*
X90725295Y-135357142D01*
X90725295Y-135357142D02*
X90772914Y-135357142D01*
X90772914Y-135357142D02*
X90868152Y-135404761D01*
X90868152Y-135404761D02*
X90915771Y-135452380D01*
X90915771Y-135452380D02*
X90963390Y-135547618D01*
X90963390Y-135547618D02*
X90963390Y-135738094D01*
X90963390Y-135738094D02*
X91011009Y-135833332D01*
X91011009Y-135833332D02*
X91058628Y-135880951D01*
X91058628Y-135880951D02*
X91153866Y-135928570D01*
X91153866Y-135928570D02*
X91344342Y-135928570D01*
X91344342Y-135928570D02*
X91439580Y-135880951D01*
X91439580Y-135880951D02*
X91487200Y-135833332D01*
X91487200Y-135833332D02*
X91534819Y-135738094D01*
X91534819Y-135738094D02*
X91534819Y-135547618D01*
X91534819Y-135547618D02*
X91487200Y-135452380D01*
X91487200Y-135452380D02*
X91439580Y-135404761D01*
X91439580Y-135404761D02*
X91344342Y-135357142D01*
X91344342Y-135357142D02*
X91153866Y-135357142D01*
X91153866Y-135357142D02*
X91058628Y-135404761D01*
X91058628Y-135404761D02*
X91011009Y-135452380D01*
X91011009Y-135452380D02*
X90963390Y-135547618D01*
X149550057Y-61515238D02*
X149502438Y-61610476D01*
X149502438Y-61610476D02*
X149407200Y-61705714D01*
X149407200Y-61705714D02*
X149264342Y-61848571D01*
X149264342Y-61848571D02*
X149216723Y-61943809D01*
X149216723Y-61943809D02*
X149216723Y-62039047D01*
X149454819Y-61991428D02*
X149407200Y-62086666D01*
X149407200Y-62086666D02*
X149311961Y-62181904D01*
X149311961Y-62181904D02*
X149121485Y-62229523D01*
X149121485Y-62229523D02*
X148788152Y-62229523D01*
X148788152Y-62229523D02*
X148597676Y-62181904D01*
X148597676Y-62181904D02*
X148502438Y-62086666D01*
X148502438Y-62086666D02*
X148454819Y-61991428D01*
X148454819Y-61991428D02*
X148454819Y-61800952D01*
X148454819Y-61800952D02*
X148502438Y-61705714D01*
X148502438Y-61705714D02*
X148597676Y-61610476D01*
X148597676Y-61610476D02*
X148788152Y-61562857D01*
X148788152Y-61562857D02*
X149121485Y-61562857D01*
X149121485Y-61562857D02*
X149311961Y-61610476D01*
X149311961Y-61610476D02*
X149407200Y-61705714D01*
X149407200Y-61705714D02*
X149454819Y-61800952D01*
X149454819Y-61800952D02*
X149454819Y-61991428D01*
X148550057Y-61181904D02*
X148502438Y-61134285D01*
X148502438Y-61134285D02*
X148454819Y-61039047D01*
X148454819Y-61039047D02*
X148454819Y-60800952D01*
X148454819Y-60800952D02*
X148502438Y-60705714D01*
X148502438Y-60705714D02*
X148550057Y-60658095D01*
X148550057Y-60658095D02*
X148645295Y-60610476D01*
X148645295Y-60610476D02*
X148740533Y-60610476D01*
X148740533Y-60610476D02*
X148883390Y-60658095D01*
X148883390Y-60658095D02*
X149454819Y-61229523D01*
X149454819Y-61229523D02*
X149454819Y-60610476D01*
X123312719Y-40736623D02*
X124027004Y-40736623D01*
X124027004Y-40736623D02*
X124169861Y-40784242D01*
X124169861Y-40784242D02*
X124265100Y-40879480D01*
X124265100Y-40879480D02*
X124312719Y-41022337D01*
X124312719Y-41022337D02*
X124312719Y-41117575D01*
X124312719Y-39736623D02*
X124312719Y-40308051D01*
X124312719Y-40022337D02*
X123312719Y-40022337D01*
X123312719Y-40022337D02*
X123455576Y-40117575D01*
X123455576Y-40117575D02*
X123550814Y-40212813D01*
X123550814Y-40212813D02*
X123598433Y-40308051D01*
X123407957Y-39355670D02*
X123360338Y-39308051D01*
X123360338Y-39308051D02*
X123312719Y-39212813D01*
X123312719Y-39212813D02*
X123312719Y-38974718D01*
X123312719Y-38974718D02*
X123360338Y-38879480D01*
X123360338Y-38879480D02*
X123407957Y-38831861D01*
X123407957Y-38831861D02*
X123503195Y-38784242D01*
X123503195Y-38784242D02*
X123598433Y-38784242D01*
X123598433Y-38784242D02*
X123741290Y-38831861D01*
X123741290Y-38831861D02*
X124312719Y-39403289D01*
X124312719Y-39403289D02*
X124312719Y-38784242D01*
X71449942Y-60944761D02*
X71497561Y-60849523D01*
X71497561Y-60849523D02*
X71592800Y-60754285D01*
X71592800Y-60754285D02*
X71735657Y-60611428D01*
X71735657Y-60611428D02*
X71783276Y-60516190D01*
X71783276Y-60516190D02*
X71783276Y-60420952D01*
X71545180Y-60468571D02*
X71592800Y-60373333D01*
X71592800Y-60373333D02*
X71688038Y-60278095D01*
X71688038Y-60278095D02*
X71878514Y-60230476D01*
X71878514Y-60230476D02*
X72211847Y-60230476D01*
X72211847Y-60230476D02*
X72402323Y-60278095D01*
X72402323Y-60278095D02*
X72497561Y-60373333D01*
X72497561Y-60373333D02*
X72545180Y-60468571D01*
X72545180Y-60468571D02*
X72545180Y-60659047D01*
X72545180Y-60659047D02*
X72497561Y-60754285D01*
X72497561Y-60754285D02*
X72402323Y-60849523D01*
X72402323Y-60849523D02*
X72211847Y-60897142D01*
X72211847Y-60897142D02*
X71878514Y-60897142D01*
X71878514Y-60897142D02*
X71688038Y-60849523D01*
X71688038Y-60849523D02*
X71592800Y-60754285D01*
X71592800Y-60754285D02*
X71545180Y-60659047D01*
X71545180Y-60659047D02*
X71545180Y-60468571D01*
X72116609Y-61468571D02*
X72164228Y-61373333D01*
X72164228Y-61373333D02*
X72211847Y-61325714D01*
X72211847Y-61325714D02*
X72307085Y-61278095D01*
X72307085Y-61278095D02*
X72354704Y-61278095D01*
X72354704Y-61278095D02*
X72449942Y-61325714D01*
X72449942Y-61325714D02*
X72497561Y-61373333D01*
X72497561Y-61373333D02*
X72545180Y-61468571D01*
X72545180Y-61468571D02*
X72545180Y-61659047D01*
X72545180Y-61659047D02*
X72497561Y-61754285D01*
X72497561Y-61754285D02*
X72449942Y-61801904D01*
X72449942Y-61801904D02*
X72354704Y-61849523D01*
X72354704Y-61849523D02*
X72307085Y-61849523D01*
X72307085Y-61849523D02*
X72211847Y-61801904D01*
X72211847Y-61801904D02*
X72164228Y-61754285D01*
X72164228Y-61754285D02*
X72116609Y-61659047D01*
X72116609Y-61659047D02*
X72116609Y-61468571D01*
X72116609Y-61468571D02*
X72068990Y-61373333D01*
X72068990Y-61373333D02*
X72021371Y-61325714D01*
X72021371Y-61325714D02*
X71926133Y-61278095D01*
X71926133Y-61278095D02*
X71735657Y-61278095D01*
X71735657Y-61278095D02*
X71640419Y-61325714D01*
X71640419Y-61325714D02*
X71592800Y-61373333D01*
X71592800Y-61373333D02*
X71545180Y-61468571D01*
X71545180Y-61468571D02*
X71545180Y-61659047D01*
X71545180Y-61659047D02*
X71592800Y-61754285D01*
X71592800Y-61754285D02*
X71640419Y-61801904D01*
X71640419Y-61801904D02*
X71735657Y-61849523D01*
X71735657Y-61849523D02*
X71926133Y-61849523D01*
X71926133Y-61849523D02*
X72021371Y-61801904D01*
X72021371Y-61801904D02*
X72068990Y-61754285D01*
X72068990Y-61754285D02*
X72116609Y-61659047D01*
X99584819Y-116222857D02*
X99108628Y-116556190D01*
X99584819Y-116794285D02*
X98584819Y-116794285D01*
X98584819Y-116794285D02*
X98584819Y-116413333D01*
X98584819Y-116413333D02*
X98632438Y-116318095D01*
X98632438Y-116318095D02*
X98680057Y-116270476D01*
X98680057Y-116270476D02*
X98775295Y-116222857D01*
X98775295Y-116222857D02*
X98918152Y-116222857D01*
X98918152Y-116222857D02*
X99013390Y-116270476D01*
X99013390Y-116270476D02*
X99061009Y-116318095D01*
X99061009Y-116318095D02*
X99108628Y-116413333D01*
X99108628Y-116413333D02*
X99108628Y-116794285D01*
X99584819Y-115270476D02*
X99584819Y-115841904D01*
X99584819Y-115556190D02*
X98584819Y-115556190D01*
X98584819Y-115556190D02*
X98727676Y-115651428D01*
X98727676Y-115651428D02*
X98822914Y-115746666D01*
X98822914Y-115746666D02*
X98870533Y-115841904D01*
X98584819Y-114651428D02*
X98584819Y-114556190D01*
X98584819Y-114556190D02*
X98632438Y-114460952D01*
X98632438Y-114460952D02*
X98680057Y-114413333D01*
X98680057Y-114413333D02*
X98775295Y-114365714D01*
X98775295Y-114365714D02*
X98965771Y-114318095D01*
X98965771Y-114318095D02*
X99203866Y-114318095D01*
X99203866Y-114318095D02*
X99394342Y-114365714D01*
X99394342Y-114365714D02*
X99489580Y-114413333D01*
X99489580Y-114413333D02*
X99537200Y-114460952D01*
X99537200Y-114460952D02*
X99584819Y-114556190D01*
X99584819Y-114556190D02*
X99584819Y-114651428D01*
X99584819Y-114651428D02*
X99537200Y-114746666D01*
X99537200Y-114746666D02*
X99489580Y-114794285D01*
X99489580Y-114794285D02*
X99394342Y-114841904D01*
X99394342Y-114841904D02*
X99203866Y-114889523D01*
X99203866Y-114889523D02*
X98965771Y-114889523D01*
X98965771Y-114889523D02*
X98775295Y-114841904D01*
X98775295Y-114841904D02*
X98680057Y-114794285D01*
X98680057Y-114794285D02*
X98632438Y-114746666D01*
X98632438Y-114746666D02*
X98584819Y-114651428D01*
X110312719Y-40736623D02*
X111027004Y-40736623D01*
X111027004Y-40736623D02*
X111169861Y-40784242D01*
X111169861Y-40784242D02*
X111265100Y-40879480D01*
X111265100Y-40879480D02*
X111312719Y-41022337D01*
X111312719Y-41022337D02*
X111312719Y-41117575D01*
X111312719Y-39736623D02*
X111312719Y-40308051D01*
X111312719Y-40022337D02*
X110312719Y-40022337D01*
X110312719Y-40022337D02*
X110455576Y-40117575D01*
X110455576Y-40117575D02*
X110550814Y-40212813D01*
X110550814Y-40212813D02*
X110598433Y-40308051D01*
X110312719Y-39403289D02*
X110312719Y-38784242D01*
X110312719Y-38784242D02*
X110693671Y-39117575D01*
X110693671Y-39117575D02*
X110693671Y-38974718D01*
X110693671Y-38974718D02*
X110741290Y-38879480D01*
X110741290Y-38879480D02*
X110788909Y-38831861D01*
X110788909Y-38831861D02*
X110884147Y-38784242D01*
X110884147Y-38784242D02*
X111122242Y-38784242D01*
X111122242Y-38784242D02*
X111217480Y-38831861D01*
X111217480Y-38831861D02*
X111265100Y-38879480D01*
X111265100Y-38879480D02*
X111312719Y-38974718D01*
X111312719Y-38974718D02*
X111312719Y-39260432D01*
X111312719Y-39260432D02*
X111265100Y-39355670D01*
X111265100Y-39355670D02*
X111217480Y-39403289D01*
X178666666Y-62564819D02*
X178666666Y-63279104D01*
X178666666Y-63279104D02*
X178619047Y-63421961D01*
X178619047Y-63421961D02*
X178523809Y-63517200D01*
X178523809Y-63517200D02*
X178380952Y-63564819D01*
X178380952Y-63564819D02*
X178285714Y-63564819D01*
X179285714Y-62993390D02*
X179190476Y-62945771D01*
X179190476Y-62945771D02*
X179142857Y-62898152D01*
X179142857Y-62898152D02*
X179095238Y-62802914D01*
X179095238Y-62802914D02*
X179095238Y-62755295D01*
X179095238Y-62755295D02*
X179142857Y-62660057D01*
X179142857Y-62660057D02*
X179190476Y-62612438D01*
X179190476Y-62612438D02*
X179285714Y-62564819D01*
X179285714Y-62564819D02*
X179476190Y-62564819D01*
X179476190Y-62564819D02*
X179571428Y-62612438D01*
X179571428Y-62612438D02*
X179619047Y-62660057D01*
X179619047Y-62660057D02*
X179666666Y-62755295D01*
X179666666Y-62755295D02*
X179666666Y-62802914D01*
X179666666Y-62802914D02*
X179619047Y-62898152D01*
X179619047Y-62898152D02*
X179571428Y-62945771D01*
X179571428Y-62945771D02*
X179476190Y-62993390D01*
X179476190Y-62993390D02*
X179285714Y-62993390D01*
X179285714Y-62993390D02*
X179190476Y-63041009D01*
X179190476Y-63041009D02*
X179142857Y-63088628D01*
X179142857Y-63088628D02*
X179095238Y-63183866D01*
X179095238Y-63183866D02*
X179095238Y-63374342D01*
X179095238Y-63374342D02*
X179142857Y-63469580D01*
X179142857Y-63469580D02*
X179190476Y-63517200D01*
X179190476Y-63517200D02*
X179285714Y-63564819D01*
X179285714Y-63564819D02*
X179476190Y-63564819D01*
X179476190Y-63564819D02*
X179571428Y-63517200D01*
X179571428Y-63517200D02*
X179619047Y-63469580D01*
X179619047Y-63469580D02*
X179666666Y-63374342D01*
X179666666Y-63374342D02*
X179666666Y-63183866D01*
X179666666Y-63183866D02*
X179619047Y-63088628D01*
X179619047Y-63088628D02*
X179571428Y-63041009D01*
X179571428Y-63041009D02*
X179476190Y-62993390D01*
X152772719Y-126486623D02*
X153487004Y-126486623D01*
X153487004Y-126486623D02*
X153629861Y-126534242D01*
X153629861Y-126534242D02*
X153725100Y-126629480D01*
X153725100Y-126629480D02*
X153772719Y-126772337D01*
X153772719Y-126772337D02*
X153772719Y-126867575D01*
X153772719Y-125486623D02*
X153772719Y-126058051D01*
X153772719Y-125772337D02*
X152772719Y-125772337D01*
X152772719Y-125772337D02*
X152915576Y-125867575D01*
X152915576Y-125867575D02*
X153010814Y-125962813D01*
X153010814Y-125962813D02*
X153058433Y-126058051D01*
X152772719Y-124867575D02*
X152772719Y-124772337D01*
X152772719Y-124772337D02*
X152820338Y-124677099D01*
X152820338Y-124677099D02*
X152867957Y-124629480D01*
X152867957Y-124629480D02*
X152963195Y-124581861D01*
X152963195Y-124581861D02*
X153153671Y-124534242D01*
X153153671Y-124534242D02*
X153391766Y-124534242D01*
X153391766Y-124534242D02*
X153582242Y-124581861D01*
X153582242Y-124581861D02*
X153677480Y-124629480D01*
X153677480Y-124629480D02*
X153725100Y-124677099D01*
X153725100Y-124677099D02*
X153772719Y-124772337D01*
X153772719Y-124772337D02*
X153772719Y-124867575D01*
X153772719Y-124867575D02*
X153725100Y-124962813D01*
X153725100Y-124962813D02*
X153677480Y-125010432D01*
X153677480Y-125010432D02*
X153582242Y-125058051D01*
X153582242Y-125058051D02*
X153391766Y-125105670D01*
X153391766Y-125105670D02*
X153153671Y-125105670D01*
X153153671Y-125105670D02*
X152963195Y-125058051D01*
X152963195Y-125058051D02*
X152867957Y-125010432D01*
X152867957Y-125010432D02*
X152820338Y-124962813D01*
X152820338Y-124962813D02*
X152772719Y-124867575D01*
X143666666Y-63064819D02*
X143666666Y-63779104D01*
X143666666Y-63779104D02*
X143619047Y-63921961D01*
X143619047Y-63921961D02*
X143523809Y-64017200D01*
X143523809Y-64017200D02*
X143380952Y-64064819D01*
X143380952Y-64064819D02*
X143285714Y-64064819D01*
X144571428Y-63064819D02*
X144380952Y-63064819D01*
X144380952Y-63064819D02*
X144285714Y-63112438D01*
X144285714Y-63112438D02*
X144238095Y-63160057D01*
X144238095Y-63160057D02*
X144142857Y-63302914D01*
X144142857Y-63302914D02*
X144095238Y-63493390D01*
X144095238Y-63493390D02*
X144095238Y-63874342D01*
X144095238Y-63874342D02*
X144142857Y-63969580D01*
X144142857Y-63969580D02*
X144190476Y-64017200D01*
X144190476Y-64017200D02*
X144285714Y-64064819D01*
X144285714Y-64064819D02*
X144476190Y-64064819D01*
X144476190Y-64064819D02*
X144571428Y-64017200D01*
X144571428Y-64017200D02*
X144619047Y-63969580D01*
X144619047Y-63969580D02*
X144666666Y-63874342D01*
X144666666Y-63874342D02*
X144666666Y-63636247D01*
X144666666Y-63636247D02*
X144619047Y-63541009D01*
X144619047Y-63541009D02*
X144571428Y-63493390D01*
X144571428Y-63493390D02*
X144476190Y-63445771D01*
X144476190Y-63445771D02*
X144285714Y-63445771D01*
X144285714Y-63445771D02*
X144190476Y-63493390D01*
X144190476Y-63493390D02*
X144142857Y-63541009D01*
X144142857Y-63541009D02*
X144095238Y-63636247D01*
X175734819Y-81926666D02*
X175258628Y-82259999D01*
X175734819Y-82498094D02*
X174734819Y-82498094D01*
X174734819Y-82498094D02*
X174734819Y-82117142D01*
X174734819Y-82117142D02*
X174782438Y-82021904D01*
X174782438Y-82021904D02*
X174830057Y-81974285D01*
X174830057Y-81974285D02*
X174925295Y-81926666D01*
X174925295Y-81926666D02*
X175068152Y-81926666D01*
X175068152Y-81926666D02*
X175163390Y-81974285D01*
X175163390Y-81974285D02*
X175211009Y-82021904D01*
X175211009Y-82021904D02*
X175258628Y-82117142D01*
X175258628Y-82117142D02*
X175258628Y-82498094D01*
X174734819Y-81021904D02*
X174734819Y-81498094D01*
X174734819Y-81498094D02*
X175211009Y-81545713D01*
X175211009Y-81545713D02*
X175163390Y-81498094D01*
X175163390Y-81498094D02*
X175115771Y-81402856D01*
X175115771Y-81402856D02*
X175115771Y-81164761D01*
X175115771Y-81164761D02*
X175163390Y-81069523D01*
X175163390Y-81069523D02*
X175211009Y-81021904D01*
X175211009Y-81021904D02*
X175306247Y-80974285D01*
X175306247Y-80974285D02*
X175544342Y-80974285D01*
X175544342Y-80974285D02*
X175639580Y-81021904D01*
X175639580Y-81021904D02*
X175687200Y-81069523D01*
X175687200Y-81069523D02*
X175734819Y-81164761D01*
X175734819Y-81164761D02*
X175734819Y-81402856D01*
X175734819Y-81402856D02*
X175687200Y-81498094D01*
X175687200Y-81498094D02*
X175639580Y-81545713D01*
X131733095Y-90824819D02*
X131733095Y-91634342D01*
X131733095Y-91634342D02*
X131780714Y-91729580D01*
X131780714Y-91729580D02*
X131828333Y-91777200D01*
X131828333Y-91777200D02*
X131923571Y-91824819D01*
X131923571Y-91824819D02*
X132114047Y-91824819D01*
X132114047Y-91824819D02*
X132209285Y-91777200D01*
X132209285Y-91777200D02*
X132256904Y-91729580D01*
X132256904Y-91729580D02*
X132304523Y-91634342D01*
X132304523Y-91634342D02*
X132304523Y-90824819D01*
X133256904Y-90824819D02*
X132780714Y-90824819D01*
X132780714Y-90824819D02*
X132733095Y-91301009D01*
X132733095Y-91301009D02*
X132780714Y-91253390D01*
X132780714Y-91253390D02*
X132875952Y-91205771D01*
X132875952Y-91205771D02*
X133114047Y-91205771D01*
X133114047Y-91205771D02*
X133209285Y-91253390D01*
X133209285Y-91253390D02*
X133256904Y-91301009D01*
X133256904Y-91301009D02*
X133304523Y-91396247D01*
X133304523Y-91396247D02*
X133304523Y-91634342D01*
X133304523Y-91634342D02*
X133256904Y-91729580D01*
X133256904Y-91729580D02*
X133209285Y-91777200D01*
X133209285Y-91777200D02*
X133114047Y-91824819D01*
X133114047Y-91824819D02*
X132875952Y-91824819D01*
X132875952Y-91824819D02*
X132780714Y-91777200D01*
X132780714Y-91777200D02*
X132733095Y-91729580D01*
X135191666Y-122884819D02*
X135191666Y-123599104D01*
X135191666Y-123599104D02*
X135144047Y-123741961D01*
X135144047Y-123741961D02*
X135048809Y-123837200D01*
X135048809Y-123837200D02*
X134905952Y-123884819D01*
X134905952Y-123884819D02*
X134810714Y-123884819D01*
X135715476Y-123884819D02*
X135905952Y-123884819D01*
X135905952Y-123884819D02*
X136001190Y-123837200D01*
X136001190Y-123837200D02*
X136048809Y-123789580D01*
X136048809Y-123789580D02*
X136144047Y-123646723D01*
X136144047Y-123646723D02*
X136191666Y-123456247D01*
X136191666Y-123456247D02*
X136191666Y-123075295D01*
X136191666Y-123075295D02*
X136144047Y-122980057D01*
X136144047Y-122980057D02*
X136096428Y-122932438D01*
X136096428Y-122932438D02*
X136001190Y-122884819D01*
X136001190Y-122884819D02*
X135810714Y-122884819D01*
X135810714Y-122884819D02*
X135715476Y-122932438D01*
X135715476Y-122932438D02*
X135667857Y-122980057D01*
X135667857Y-122980057D02*
X135620238Y-123075295D01*
X135620238Y-123075295D02*
X135620238Y-123313390D01*
X135620238Y-123313390D02*
X135667857Y-123408628D01*
X135667857Y-123408628D02*
X135715476Y-123456247D01*
X135715476Y-123456247D02*
X135810714Y-123503866D01*
X135810714Y-123503866D02*
X136001190Y-123503866D01*
X136001190Y-123503866D02*
X136096428Y-123456247D01*
X136096428Y-123456247D02*
X136144047Y-123408628D01*
X136144047Y-123408628D02*
X136191666Y-123313390D01*
X81190476Y-85964819D02*
X81190476Y-86679104D01*
X81190476Y-86679104D02*
X81142857Y-86821961D01*
X81142857Y-86821961D02*
X81047619Y-86917200D01*
X81047619Y-86917200D02*
X80904762Y-86964819D01*
X80904762Y-86964819D02*
X80809524Y-86964819D01*
X81619048Y-86060057D02*
X81666667Y-86012438D01*
X81666667Y-86012438D02*
X81761905Y-85964819D01*
X81761905Y-85964819D02*
X82000000Y-85964819D01*
X82000000Y-85964819D02*
X82095238Y-86012438D01*
X82095238Y-86012438D02*
X82142857Y-86060057D01*
X82142857Y-86060057D02*
X82190476Y-86155295D01*
X82190476Y-86155295D02*
X82190476Y-86250533D01*
X82190476Y-86250533D02*
X82142857Y-86393390D01*
X82142857Y-86393390D02*
X81571429Y-86964819D01*
X81571429Y-86964819D02*
X82190476Y-86964819D01*
X82571429Y-86060057D02*
X82619048Y-86012438D01*
X82619048Y-86012438D02*
X82714286Y-85964819D01*
X82714286Y-85964819D02*
X82952381Y-85964819D01*
X82952381Y-85964819D02*
X83047619Y-86012438D01*
X83047619Y-86012438D02*
X83095238Y-86060057D01*
X83095238Y-86060057D02*
X83142857Y-86155295D01*
X83142857Y-86155295D02*
X83142857Y-86250533D01*
X83142857Y-86250533D02*
X83095238Y-86393390D01*
X83095238Y-86393390D02*
X82523810Y-86964819D01*
X82523810Y-86964819D02*
X83142857Y-86964819D01*
X161166666Y-62564819D02*
X161166666Y-63279104D01*
X161166666Y-63279104D02*
X161119047Y-63421961D01*
X161119047Y-63421961D02*
X161023809Y-63517200D01*
X161023809Y-63517200D02*
X160880952Y-63564819D01*
X160880952Y-63564819D02*
X160785714Y-63564819D01*
X161547619Y-62564819D02*
X162214285Y-62564819D01*
X162214285Y-62564819D02*
X161785714Y-63564819D01*
X141234819Y-81546666D02*
X140758628Y-81879999D01*
X141234819Y-82118094D02*
X140234819Y-82118094D01*
X140234819Y-82118094D02*
X140234819Y-81737142D01*
X140234819Y-81737142D02*
X140282438Y-81641904D01*
X140282438Y-81641904D02*
X140330057Y-81594285D01*
X140330057Y-81594285D02*
X140425295Y-81546666D01*
X140425295Y-81546666D02*
X140568152Y-81546666D01*
X140568152Y-81546666D02*
X140663390Y-81594285D01*
X140663390Y-81594285D02*
X140711009Y-81641904D01*
X140711009Y-81641904D02*
X140758628Y-81737142D01*
X140758628Y-81737142D02*
X140758628Y-82118094D01*
X140234819Y-81213332D02*
X140234819Y-80546666D01*
X140234819Y-80546666D02*
X141234819Y-80975237D01*
X149190476Y-102574819D02*
X149190476Y-103289104D01*
X149190476Y-103289104D02*
X149142857Y-103431961D01*
X149142857Y-103431961D02*
X149047619Y-103527200D01*
X149047619Y-103527200D02*
X148904762Y-103574819D01*
X148904762Y-103574819D02*
X148809524Y-103574819D01*
X149619048Y-102670057D02*
X149666667Y-102622438D01*
X149666667Y-102622438D02*
X149761905Y-102574819D01*
X149761905Y-102574819D02*
X150000000Y-102574819D01*
X150000000Y-102574819D02*
X150095238Y-102622438D01*
X150095238Y-102622438D02*
X150142857Y-102670057D01*
X150142857Y-102670057D02*
X150190476Y-102765295D01*
X150190476Y-102765295D02*
X150190476Y-102860533D01*
X150190476Y-102860533D02*
X150142857Y-103003390D01*
X150142857Y-103003390D02*
X149571429Y-103574819D01*
X149571429Y-103574819D02*
X150190476Y-103574819D01*
X150666667Y-103574819D02*
X150857143Y-103574819D01*
X150857143Y-103574819D02*
X150952381Y-103527200D01*
X150952381Y-103527200D02*
X151000000Y-103479580D01*
X151000000Y-103479580D02*
X151095238Y-103336723D01*
X151095238Y-103336723D02*
X151142857Y-103146247D01*
X151142857Y-103146247D02*
X151142857Y-102765295D01*
X151142857Y-102765295D02*
X151095238Y-102670057D01*
X151095238Y-102670057D02*
X151047619Y-102622438D01*
X151047619Y-102622438D02*
X150952381Y-102574819D01*
X150952381Y-102574819D02*
X150761905Y-102574819D01*
X150761905Y-102574819D02*
X150666667Y-102622438D01*
X150666667Y-102622438D02*
X150619048Y-102670057D01*
X150619048Y-102670057D02*
X150571429Y-102765295D01*
X150571429Y-102765295D02*
X150571429Y-103003390D01*
X150571429Y-103003390D02*
X150619048Y-103098628D01*
X150619048Y-103098628D02*
X150666667Y-103146247D01*
X150666667Y-103146247D02*
X150761905Y-103193866D01*
X150761905Y-103193866D02*
X150952381Y-103193866D01*
X150952381Y-103193866D02*
X151047619Y-103146247D01*
X151047619Y-103146247D02*
X151095238Y-103098628D01*
X151095238Y-103098628D02*
X151142857Y-103003390D01*
X71449942Y-84968571D02*
X71497561Y-84873333D01*
X71497561Y-84873333D02*
X71592800Y-84778095D01*
X71592800Y-84778095D02*
X71735657Y-84635238D01*
X71735657Y-84635238D02*
X71783276Y-84540000D01*
X71783276Y-84540000D02*
X71783276Y-84444762D01*
X71545180Y-84492381D02*
X71592800Y-84397143D01*
X71592800Y-84397143D02*
X71688038Y-84301905D01*
X71688038Y-84301905D02*
X71878514Y-84254286D01*
X71878514Y-84254286D02*
X72211847Y-84254286D01*
X72211847Y-84254286D02*
X72402323Y-84301905D01*
X72402323Y-84301905D02*
X72497561Y-84397143D01*
X72497561Y-84397143D02*
X72545180Y-84492381D01*
X72545180Y-84492381D02*
X72545180Y-84682857D01*
X72545180Y-84682857D02*
X72497561Y-84778095D01*
X72497561Y-84778095D02*
X72402323Y-84873333D01*
X72402323Y-84873333D02*
X72211847Y-84920952D01*
X72211847Y-84920952D02*
X71878514Y-84920952D01*
X71878514Y-84920952D02*
X71688038Y-84873333D01*
X71688038Y-84873333D02*
X71592800Y-84778095D01*
X71592800Y-84778095D02*
X71545180Y-84682857D01*
X71545180Y-84682857D02*
X71545180Y-84492381D01*
X71545180Y-85873333D02*
X71545180Y-85301905D01*
X71545180Y-85587619D02*
X72545180Y-85587619D01*
X72545180Y-85587619D02*
X72402323Y-85492381D01*
X72402323Y-85492381D02*
X72307085Y-85397143D01*
X72307085Y-85397143D02*
X72259466Y-85301905D01*
X72545180Y-86492381D02*
X72545180Y-86587619D01*
X72545180Y-86587619D02*
X72497561Y-86682857D01*
X72497561Y-86682857D02*
X72449942Y-86730476D01*
X72449942Y-86730476D02*
X72354704Y-86778095D01*
X72354704Y-86778095D02*
X72164228Y-86825714D01*
X72164228Y-86825714D02*
X71926133Y-86825714D01*
X71926133Y-86825714D02*
X71735657Y-86778095D01*
X71735657Y-86778095D02*
X71640419Y-86730476D01*
X71640419Y-86730476D02*
X71592800Y-86682857D01*
X71592800Y-86682857D02*
X71545180Y-86587619D01*
X71545180Y-86587619D02*
X71545180Y-86492381D01*
X71545180Y-86492381D02*
X71592800Y-86397143D01*
X71592800Y-86397143D02*
X71640419Y-86349524D01*
X71640419Y-86349524D02*
X71735657Y-86301905D01*
X71735657Y-86301905D02*
X71926133Y-86254286D01*
X71926133Y-86254286D02*
X72164228Y-86254286D01*
X72164228Y-86254286D02*
X72354704Y-86301905D01*
X72354704Y-86301905D02*
X72449942Y-86349524D01*
X72449942Y-86349524D02*
X72497561Y-86397143D01*
X72497561Y-86397143D02*
X72545180Y-86492381D01*
X153222719Y-150093766D02*
X152746528Y-150427099D01*
X153222719Y-150665194D02*
X152222719Y-150665194D01*
X152222719Y-150665194D02*
X152222719Y-150284242D01*
X152222719Y-150284242D02*
X152270338Y-150189004D01*
X152270338Y-150189004D02*
X152317957Y-150141385D01*
X152317957Y-150141385D02*
X152413195Y-150093766D01*
X152413195Y-150093766D02*
X152556052Y-150093766D01*
X152556052Y-150093766D02*
X152651290Y-150141385D01*
X152651290Y-150141385D02*
X152698909Y-150189004D01*
X152698909Y-150189004D02*
X152746528Y-150284242D01*
X152746528Y-150284242D02*
X152746528Y-150665194D01*
X153222719Y-149141385D02*
X153222719Y-149712813D01*
X153222719Y-149427099D02*
X152222719Y-149427099D01*
X152222719Y-149427099D02*
X152365576Y-149522337D01*
X152365576Y-149522337D02*
X152460814Y-149617575D01*
X152460814Y-149617575D02*
X152508433Y-149712813D01*
X106690476Y-86084819D02*
X106690476Y-86799104D01*
X106690476Y-86799104D02*
X106642857Y-86941961D01*
X106642857Y-86941961D02*
X106547619Y-87037200D01*
X106547619Y-87037200D02*
X106404762Y-87084819D01*
X106404762Y-87084819D02*
X106309524Y-87084819D01*
X107690476Y-87084819D02*
X107119048Y-87084819D01*
X107404762Y-87084819D02*
X107404762Y-86084819D01*
X107404762Y-86084819D02*
X107309524Y-86227676D01*
X107309524Y-86227676D02*
X107214286Y-86322914D01*
X107214286Y-86322914D02*
X107119048Y-86370533D01*
X108166667Y-87084819D02*
X108357143Y-87084819D01*
X108357143Y-87084819D02*
X108452381Y-87037200D01*
X108452381Y-87037200D02*
X108500000Y-86989580D01*
X108500000Y-86989580D02*
X108595238Y-86846723D01*
X108595238Y-86846723D02*
X108642857Y-86656247D01*
X108642857Y-86656247D02*
X108642857Y-86275295D01*
X108642857Y-86275295D02*
X108595238Y-86180057D01*
X108595238Y-86180057D02*
X108547619Y-86132438D01*
X108547619Y-86132438D02*
X108452381Y-86084819D01*
X108452381Y-86084819D02*
X108261905Y-86084819D01*
X108261905Y-86084819D02*
X108166667Y-86132438D01*
X108166667Y-86132438D02*
X108119048Y-86180057D01*
X108119048Y-86180057D02*
X108071429Y-86275295D01*
X108071429Y-86275295D02*
X108071429Y-86513390D01*
X108071429Y-86513390D02*
X108119048Y-86608628D01*
X108119048Y-86608628D02*
X108166667Y-86656247D01*
X108166667Y-86656247D02*
X108261905Y-86703866D01*
X108261905Y-86703866D02*
X108452381Y-86703866D01*
X108452381Y-86703866D02*
X108547619Y-86656247D01*
X108547619Y-86656247D02*
X108595238Y-86608628D01*
X108595238Y-86608628D02*
X108642857Y-86513390D01*
X62804819Y-124183333D02*
X63519104Y-124183333D01*
X63519104Y-124183333D02*
X63661961Y-124230952D01*
X63661961Y-124230952D02*
X63757200Y-124326190D01*
X63757200Y-124326190D02*
X63804819Y-124469047D01*
X63804819Y-124469047D02*
X63804819Y-124564285D01*
X62900057Y-123754761D02*
X62852438Y-123707142D01*
X62852438Y-123707142D02*
X62804819Y-123611904D01*
X62804819Y-123611904D02*
X62804819Y-123373809D01*
X62804819Y-123373809D02*
X62852438Y-123278571D01*
X62852438Y-123278571D02*
X62900057Y-123230952D01*
X62900057Y-123230952D02*
X62995295Y-123183333D01*
X62995295Y-123183333D02*
X63090533Y-123183333D01*
X63090533Y-123183333D02*
X63233390Y-123230952D01*
X63233390Y-123230952D02*
X63804819Y-123802380D01*
X63804819Y-123802380D02*
X63804819Y-123183333D01*
X138709566Y-148234419D02*
X138709566Y-148948704D01*
X138709566Y-148948704D02*
X138661947Y-149091561D01*
X138661947Y-149091561D02*
X138566709Y-149186800D01*
X138566709Y-149186800D02*
X138423852Y-149234419D01*
X138423852Y-149234419D02*
X138328614Y-149234419D01*
X139614328Y-148567752D02*
X139614328Y-149234419D01*
X139376233Y-148186800D02*
X139138138Y-148901085D01*
X139138138Y-148901085D02*
X139757185Y-148901085D01*
X150488376Y-77181919D02*
X150488376Y-77896204D01*
X150488376Y-77896204D02*
X150440757Y-78039061D01*
X150440757Y-78039061D02*
X150345519Y-78134300D01*
X150345519Y-78134300D02*
X150202662Y-78181919D01*
X150202662Y-78181919D02*
X150107424Y-78181919D01*
X150869329Y-77181919D02*
X151488376Y-77181919D01*
X151488376Y-77181919D02*
X151155043Y-77562871D01*
X151155043Y-77562871D02*
X151297900Y-77562871D01*
X151297900Y-77562871D02*
X151393138Y-77610490D01*
X151393138Y-77610490D02*
X151440757Y-77658109D01*
X151440757Y-77658109D02*
X151488376Y-77753347D01*
X151488376Y-77753347D02*
X151488376Y-77991442D01*
X151488376Y-77991442D02*
X151440757Y-78086680D01*
X151440757Y-78086680D02*
X151393138Y-78134300D01*
X151393138Y-78134300D02*
X151297900Y-78181919D01*
X151297900Y-78181919D02*
X151012186Y-78181919D01*
X151012186Y-78181919D02*
X150916948Y-78134300D01*
X150916948Y-78134300D02*
X150869329Y-78086680D01*
X151869329Y-77277157D02*
X151916948Y-77229538D01*
X151916948Y-77229538D02*
X152012186Y-77181919D01*
X152012186Y-77181919D02*
X152250281Y-77181919D01*
X152250281Y-77181919D02*
X152345519Y-77229538D01*
X152345519Y-77229538D02*
X152393138Y-77277157D01*
X152393138Y-77277157D02*
X152440757Y-77372395D01*
X152440757Y-77372395D02*
X152440757Y-77467633D01*
X152440757Y-77467633D02*
X152393138Y-77610490D01*
X152393138Y-77610490D02*
X151821710Y-78181919D01*
X151821710Y-78181919D02*
X152440757Y-78181919D01*
X158714567Y-101084300D02*
X158857424Y-101131919D01*
X158857424Y-101131919D02*
X159095519Y-101131919D01*
X159095519Y-101131919D02*
X159190757Y-101084300D01*
X159190757Y-101084300D02*
X159238376Y-101036680D01*
X159238376Y-101036680D02*
X159285995Y-100941442D01*
X159285995Y-100941442D02*
X159285995Y-100846204D01*
X159285995Y-100846204D02*
X159238376Y-100750966D01*
X159238376Y-100750966D02*
X159190757Y-100703347D01*
X159190757Y-100703347D02*
X159095519Y-100655728D01*
X159095519Y-100655728D02*
X158905043Y-100608109D01*
X158905043Y-100608109D02*
X158809805Y-100560490D01*
X158809805Y-100560490D02*
X158762186Y-100512871D01*
X158762186Y-100512871D02*
X158714567Y-100417633D01*
X158714567Y-100417633D02*
X158714567Y-100322395D01*
X158714567Y-100322395D02*
X158762186Y-100227157D01*
X158762186Y-100227157D02*
X158809805Y-100179538D01*
X158809805Y-100179538D02*
X158905043Y-100131919D01*
X158905043Y-100131919D02*
X159143138Y-100131919D01*
X159143138Y-100131919D02*
X159285995Y-100179538D01*
X159619329Y-100131919D02*
X159857424Y-101131919D01*
X159857424Y-101131919D02*
X160047900Y-100417633D01*
X160047900Y-100417633D02*
X160238376Y-101131919D01*
X160238376Y-101131919D02*
X160476472Y-100131919D01*
X161381233Y-101131919D02*
X160809805Y-101131919D01*
X161095519Y-101131919D02*
X161095519Y-100131919D01*
X161095519Y-100131919D02*
X161000281Y-100274776D01*
X161000281Y-100274776D02*
X160905043Y-100370014D01*
X160905043Y-100370014D02*
X160809805Y-100417633D01*
X71449942Y-73444761D02*
X71497561Y-73349523D01*
X71497561Y-73349523D02*
X71592800Y-73254285D01*
X71592800Y-73254285D02*
X71735657Y-73111428D01*
X71735657Y-73111428D02*
X71783276Y-73016190D01*
X71783276Y-73016190D02*
X71783276Y-72920952D01*
X71545180Y-72968571D02*
X71592800Y-72873333D01*
X71592800Y-72873333D02*
X71688038Y-72778095D01*
X71688038Y-72778095D02*
X71878514Y-72730476D01*
X71878514Y-72730476D02*
X72211847Y-72730476D01*
X72211847Y-72730476D02*
X72402323Y-72778095D01*
X72402323Y-72778095D02*
X72497561Y-72873333D01*
X72497561Y-72873333D02*
X72545180Y-72968571D01*
X72545180Y-72968571D02*
X72545180Y-73159047D01*
X72545180Y-73159047D02*
X72497561Y-73254285D01*
X72497561Y-73254285D02*
X72402323Y-73349523D01*
X72402323Y-73349523D02*
X72211847Y-73397142D01*
X72211847Y-73397142D02*
X71878514Y-73397142D01*
X71878514Y-73397142D02*
X71688038Y-73349523D01*
X71688038Y-73349523D02*
X71592800Y-73254285D01*
X71592800Y-73254285D02*
X71545180Y-73159047D01*
X71545180Y-73159047D02*
X71545180Y-72968571D01*
X71545180Y-73873333D02*
X71545180Y-74063809D01*
X71545180Y-74063809D02*
X71592800Y-74159047D01*
X71592800Y-74159047D02*
X71640419Y-74206666D01*
X71640419Y-74206666D02*
X71783276Y-74301904D01*
X71783276Y-74301904D02*
X71973752Y-74349523D01*
X71973752Y-74349523D02*
X72354704Y-74349523D01*
X72354704Y-74349523D02*
X72449942Y-74301904D01*
X72449942Y-74301904D02*
X72497561Y-74254285D01*
X72497561Y-74254285D02*
X72545180Y-74159047D01*
X72545180Y-74159047D02*
X72545180Y-73968571D01*
X72545180Y-73968571D02*
X72497561Y-73873333D01*
X72497561Y-73873333D02*
X72449942Y-73825714D01*
X72449942Y-73825714D02*
X72354704Y-73778095D01*
X72354704Y-73778095D02*
X72116609Y-73778095D01*
X72116609Y-73778095D02*
X72021371Y-73825714D01*
X72021371Y-73825714D02*
X71973752Y-73873333D01*
X71973752Y-73873333D02*
X71926133Y-73968571D01*
X71926133Y-73968571D02*
X71926133Y-74159047D01*
X71926133Y-74159047D02*
X71973752Y-74254285D01*
X71973752Y-74254285D02*
X72021371Y-74301904D01*
X72021371Y-74301904D02*
X72116609Y-74349523D01*
X132988376Y-77681919D02*
X132988376Y-78396204D01*
X132988376Y-78396204D02*
X132940757Y-78539061D01*
X132940757Y-78539061D02*
X132845519Y-78634300D01*
X132845519Y-78634300D02*
X132702662Y-78681919D01*
X132702662Y-78681919D02*
X132607424Y-78681919D01*
X133369329Y-77681919D02*
X133988376Y-77681919D01*
X133988376Y-77681919D02*
X133655043Y-78062871D01*
X133655043Y-78062871D02*
X133797900Y-78062871D01*
X133797900Y-78062871D02*
X133893138Y-78110490D01*
X133893138Y-78110490D02*
X133940757Y-78158109D01*
X133940757Y-78158109D02*
X133988376Y-78253347D01*
X133988376Y-78253347D02*
X133988376Y-78491442D01*
X133988376Y-78491442D02*
X133940757Y-78586680D01*
X133940757Y-78586680D02*
X133893138Y-78634300D01*
X133893138Y-78634300D02*
X133797900Y-78681919D01*
X133797900Y-78681919D02*
X133512186Y-78681919D01*
X133512186Y-78681919D02*
X133416948Y-78634300D01*
X133416948Y-78634300D02*
X133369329Y-78586680D01*
X134321710Y-77681919D02*
X134940757Y-77681919D01*
X134940757Y-77681919D02*
X134607424Y-78062871D01*
X134607424Y-78062871D02*
X134750281Y-78062871D01*
X134750281Y-78062871D02*
X134845519Y-78110490D01*
X134845519Y-78110490D02*
X134893138Y-78158109D01*
X134893138Y-78158109D02*
X134940757Y-78253347D01*
X134940757Y-78253347D02*
X134940757Y-78491442D01*
X134940757Y-78491442D02*
X134893138Y-78586680D01*
X134893138Y-78586680D02*
X134845519Y-78634300D01*
X134845519Y-78634300D02*
X134750281Y-78681919D01*
X134750281Y-78681919D02*
X134464567Y-78681919D01*
X134464567Y-78681919D02*
X134369329Y-78634300D01*
X134369329Y-78634300D02*
X134321710Y-78586680D01*
X161782719Y-150093766D02*
X161306528Y-150427099D01*
X161782719Y-150665194D02*
X160782719Y-150665194D01*
X160782719Y-150665194D02*
X160782719Y-150284242D01*
X160782719Y-150284242D02*
X160830338Y-150189004D01*
X160830338Y-150189004D02*
X160877957Y-150141385D01*
X160877957Y-150141385D02*
X160973195Y-150093766D01*
X160973195Y-150093766D02*
X161116052Y-150093766D01*
X161116052Y-150093766D02*
X161211290Y-150141385D01*
X161211290Y-150141385D02*
X161258909Y-150189004D01*
X161258909Y-150189004D02*
X161306528Y-150284242D01*
X161306528Y-150284242D02*
X161306528Y-150665194D01*
X160782719Y-149760432D02*
X160782719Y-149141385D01*
X160782719Y-149141385D02*
X161163671Y-149474718D01*
X161163671Y-149474718D02*
X161163671Y-149331861D01*
X161163671Y-149331861D02*
X161211290Y-149236623D01*
X161211290Y-149236623D02*
X161258909Y-149189004D01*
X161258909Y-149189004D02*
X161354147Y-149141385D01*
X161354147Y-149141385D02*
X161592242Y-149141385D01*
X161592242Y-149141385D02*
X161687480Y-149189004D01*
X161687480Y-149189004D02*
X161735100Y-149236623D01*
X161735100Y-149236623D02*
X161782719Y-149331861D01*
X161782719Y-149331861D02*
X161782719Y-149617575D01*
X161782719Y-149617575D02*
X161735100Y-149712813D01*
X161735100Y-149712813D02*
X161687480Y-149760432D01*
X102084819Y-102256904D02*
X102894342Y-102256904D01*
X102894342Y-102256904D02*
X102989580Y-102209285D01*
X102989580Y-102209285D02*
X103037200Y-102161666D01*
X103037200Y-102161666D02*
X103084819Y-102066428D01*
X103084819Y-102066428D02*
X103084819Y-101875952D01*
X103084819Y-101875952D02*
X103037200Y-101780714D01*
X103037200Y-101780714D02*
X102989580Y-101733095D01*
X102989580Y-101733095D02*
X102894342Y-101685476D01*
X102894342Y-101685476D02*
X102084819Y-101685476D01*
X102084819Y-101304523D02*
X102084819Y-100685476D01*
X102084819Y-100685476D02*
X102465771Y-101018809D01*
X102465771Y-101018809D02*
X102465771Y-100875952D01*
X102465771Y-100875952D02*
X102513390Y-100780714D01*
X102513390Y-100780714D02*
X102561009Y-100733095D01*
X102561009Y-100733095D02*
X102656247Y-100685476D01*
X102656247Y-100685476D02*
X102894342Y-100685476D01*
X102894342Y-100685476D02*
X102989580Y-100733095D01*
X102989580Y-100733095D02*
X103037200Y-100780714D01*
X103037200Y-100780714D02*
X103084819Y-100875952D01*
X103084819Y-100875952D02*
X103084819Y-101161666D01*
X103084819Y-101161666D02*
X103037200Y-101256904D01*
X103037200Y-101256904D02*
X102989580Y-101304523D01*
X114294566Y-148061919D02*
X114294566Y-148776204D01*
X114294566Y-148776204D02*
X114246947Y-148919061D01*
X114246947Y-148919061D02*
X114151709Y-149014300D01*
X114151709Y-149014300D02*
X114008852Y-149061919D01*
X114008852Y-149061919D02*
X113913614Y-149061919D01*
X115294566Y-149061919D02*
X114723138Y-149061919D01*
X115008852Y-149061919D02*
X115008852Y-148061919D01*
X115008852Y-148061919D02*
X114913614Y-148204776D01*
X114913614Y-148204776D02*
X114818376Y-148300014D01*
X114818376Y-148300014D02*
X114723138Y-148347633D01*
X58690476Y-67684819D02*
X58690476Y-68399104D01*
X58690476Y-68399104D02*
X58642857Y-68541961D01*
X58642857Y-68541961D02*
X58547619Y-68637200D01*
X58547619Y-68637200D02*
X58404762Y-68684819D01*
X58404762Y-68684819D02*
X58309524Y-68684819D01*
X59690476Y-68684819D02*
X59119048Y-68684819D01*
X59404762Y-68684819D02*
X59404762Y-67684819D01*
X59404762Y-67684819D02*
X59309524Y-67827676D01*
X59309524Y-67827676D02*
X59214286Y-67922914D01*
X59214286Y-67922914D02*
X59119048Y-67970533D01*
X60023810Y-67684819D02*
X60690476Y-67684819D01*
X60690476Y-67684819D02*
X60261905Y-68684819D01*
X120857142Y-114584819D02*
X120523809Y-114108628D01*
X120285714Y-114584819D02*
X120285714Y-113584819D01*
X120285714Y-113584819D02*
X120666666Y-113584819D01*
X120666666Y-113584819D02*
X120761904Y-113632438D01*
X120761904Y-113632438D02*
X120809523Y-113680057D01*
X120809523Y-113680057D02*
X120857142Y-113775295D01*
X120857142Y-113775295D02*
X120857142Y-113918152D01*
X120857142Y-113918152D02*
X120809523Y-114013390D01*
X120809523Y-114013390D02*
X120761904Y-114061009D01*
X120761904Y-114061009D02*
X120666666Y-114108628D01*
X120666666Y-114108628D02*
X120285714Y-114108628D01*
X121809523Y-114584819D02*
X121238095Y-114584819D01*
X121523809Y-114584819D02*
X121523809Y-113584819D01*
X121523809Y-113584819D02*
X121428571Y-113727676D01*
X121428571Y-113727676D02*
X121333333Y-113822914D01*
X121333333Y-113822914D02*
X121238095Y-113870533D01*
X122761904Y-114584819D02*
X122190476Y-114584819D01*
X122476190Y-114584819D02*
X122476190Y-113584819D01*
X122476190Y-113584819D02*
X122380952Y-113727676D01*
X122380952Y-113727676D02*
X122285714Y-113822914D01*
X122285714Y-113822914D02*
X122190476Y-113870533D01*
X190234819Y-99762857D02*
X189758628Y-100096190D01*
X190234819Y-100334285D02*
X189234819Y-100334285D01*
X189234819Y-100334285D02*
X189234819Y-99953333D01*
X189234819Y-99953333D02*
X189282438Y-99858095D01*
X189282438Y-99858095D02*
X189330057Y-99810476D01*
X189330057Y-99810476D02*
X189425295Y-99762857D01*
X189425295Y-99762857D02*
X189568152Y-99762857D01*
X189568152Y-99762857D02*
X189663390Y-99810476D01*
X189663390Y-99810476D02*
X189711009Y-99858095D01*
X189711009Y-99858095D02*
X189758628Y-99953333D01*
X189758628Y-99953333D02*
X189758628Y-100334285D01*
X190234819Y-98810476D02*
X190234819Y-99381904D01*
X190234819Y-99096190D02*
X189234819Y-99096190D01*
X189234819Y-99096190D02*
X189377676Y-99191428D01*
X189377676Y-99191428D02*
X189472914Y-99286666D01*
X189472914Y-99286666D02*
X189520533Y-99381904D01*
X189234819Y-98477142D02*
X189234819Y-97810476D01*
X189234819Y-97810476D02*
X190234819Y-98239047D01*
X88690476Y-86044819D02*
X88690476Y-86759104D01*
X88690476Y-86759104D02*
X88642857Y-86901961D01*
X88642857Y-86901961D02*
X88547619Y-86997200D01*
X88547619Y-86997200D02*
X88404762Y-87044819D01*
X88404762Y-87044819D02*
X88309524Y-87044819D01*
X89119048Y-86140057D02*
X89166667Y-86092438D01*
X89166667Y-86092438D02*
X89261905Y-86044819D01*
X89261905Y-86044819D02*
X89500000Y-86044819D01*
X89500000Y-86044819D02*
X89595238Y-86092438D01*
X89595238Y-86092438D02*
X89642857Y-86140057D01*
X89642857Y-86140057D02*
X89690476Y-86235295D01*
X89690476Y-86235295D02*
X89690476Y-86330533D01*
X89690476Y-86330533D02*
X89642857Y-86473390D01*
X89642857Y-86473390D02*
X89071429Y-87044819D01*
X89071429Y-87044819D02*
X89690476Y-87044819D01*
X90642857Y-87044819D02*
X90071429Y-87044819D01*
X90357143Y-87044819D02*
X90357143Y-86044819D01*
X90357143Y-86044819D02*
X90261905Y-86187676D01*
X90261905Y-86187676D02*
X90166667Y-86282914D01*
X90166667Y-86282914D02*
X90071429Y-86330533D01*
X157734819Y-81546666D02*
X157258628Y-81879999D01*
X157734819Y-82118094D02*
X156734819Y-82118094D01*
X156734819Y-82118094D02*
X156734819Y-81737142D01*
X156734819Y-81737142D02*
X156782438Y-81641904D01*
X156782438Y-81641904D02*
X156830057Y-81594285D01*
X156830057Y-81594285D02*
X156925295Y-81546666D01*
X156925295Y-81546666D02*
X157068152Y-81546666D01*
X157068152Y-81546666D02*
X157163390Y-81594285D01*
X157163390Y-81594285D02*
X157211009Y-81641904D01*
X157211009Y-81641904D02*
X157258628Y-81737142D01*
X157258628Y-81737142D02*
X157258628Y-82118094D01*
X157068152Y-80689523D02*
X157734819Y-80689523D01*
X156687200Y-80927618D02*
X157401485Y-81165713D01*
X157401485Y-81165713D02*
X157401485Y-80546666D01*
X58690476Y-77684819D02*
X58690476Y-78399104D01*
X58690476Y-78399104D02*
X58642857Y-78541961D01*
X58642857Y-78541961D02*
X58547619Y-78637200D01*
X58547619Y-78637200D02*
X58404762Y-78684819D01*
X58404762Y-78684819D02*
X58309524Y-78684819D01*
X59690476Y-78684819D02*
X59119048Y-78684819D01*
X59404762Y-78684819D02*
X59404762Y-77684819D01*
X59404762Y-77684819D02*
X59309524Y-77827676D01*
X59309524Y-77827676D02*
X59214286Y-77922914D01*
X59214286Y-77922914D02*
X59119048Y-77970533D01*
X60261905Y-78113390D02*
X60166667Y-78065771D01*
X60166667Y-78065771D02*
X60119048Y-78018152D01*
X60119048Y-78018152D02*
X60071429Y-77922914D01*
X60071429Y-77922914D02*
X60071429Y-77875295D01*
X60071429Y-77875295D02*
X60119048Y-77780057D01*
X60119048Y-77780057D02*
X60166667Y-77732438D01*
X60166667Y-77732438D02*
X60261905Y-77684819D01*
X60261905Y-77684819D02*
X60452381Y-77684819D01*
X60452381Y-77684819D02*
X60547619Y-77732438D01*
X60547619Y-77732438D02*
X60595238Y-77780057D01*
X60595238Y-77780057D02*
X60642857Y-77875295D01*
X60642857Y-77875295D02*
X60642857Y-77922914D01*
X60642857Y-77922914D02*
X60595238Y-78018152D01*
X60595238Y-78018152D02*
X60547619Y-78065771D01*
X60547619Y-78065771D02*
X60452381Y-78113390D01*
X60452381Y-78113390D02*
X60261905Y-78113390D01*
X60261905Y-78113390D02*
X60166667Y-78161009D01*
X60166667Y-78161009D02*
X60119048Y-78208628D01*
X60119048Y-78208628D02*
X60071429Y-78303866D01*
X60071429Y-78303866D02*
X60071429Y-78494342D01*
X60071429Y-78494342D02*
X60119048Y-78589580D01*
X60119048Y-78589580D02*
X60166667Y-78637200D01*
X60166667Y-78637200D02*
X60261905Y-78684819D01*
X60261905Y-78684819D02*
X60452381Y-78684819D01*
X60452381Y-78684819D02*
X60547619Y-78637200D01*
X60547619Y-78637200D02*
X60595238Y-78589580D01*
X60595238Y-78589580D02*
X60642857Y-78494342D01*
X60642857Y-78494342D02*
X60642857Y-78303866D01*
X60642857Y-78303866D02*
X60595238Y-78208628D01*
X60595238Y-78208628D02*
X60547619Y-78161009D01*
X60547619Y-78161009D02*
X60452381Y-78113390D01*
X129382719Y-151260433D02*
X130097004Y-151260433D01*
X130097004Y-151260433D02*
X130239861Y-151308052D01*
X130239861Y-151308052D02*
X130335100Y-151403290D01*
X130335100Y-151403290D02*
X130382719Y-151546147D01*
X130382719Y-151546147D02*
X130382719Y-151641385D01*
X129382719Y-150879480D02*
X129382719Y-150260433D01*
X129382719Y-150260433D02*
X129763671Y-150593766D01*
X129763671Y-150593766D02*
X129763671Y-150450909D01*
X129763671Y-150450909D02*
X129811290Y-150355671D01*
X129811290Y-150355671D02*
X129858909Y-150308052D01*
X129858909Y-150308052D02*
X129954147Y-150260433D01*
X129954147Y-150260433D02*
X130192242Y-150260433D01*
X130192242Y-150260433D02*
X130287480Y-150308052D01*
X130287480Y-150308052D02*
X130335100Y-150355671D01*
X130335100Y-150355671D02*
X130382719Y-150450909D01*
X130382719Y-150450909D02*
X130382719Y-150736623D01*
X130382719Y-150736623D02*
X130335100Y-150831861D01*
X130335100Y-150831861D02*
X130287480Y-150879480D01*
X153405042Y-118101919D02*
X153071709Y-117625728D01*
X152833614Y-118101919D02*
X152833614Y-117101919D01*
X152833614Y-117101919D02*
X153214566Y-117101919D01*
X153214566Y-117101919D02*
X153309804Y-117149538D01*
X153309804Y-117149538D02*
X153357423Y-117197157D01*
X153357423Y-117197157D02*
X153405042Y-117292395D01*
X153405042Y-117292395D02*
X153405042Y-117435252D01*
X153405042Y-117435252D02*
X153357423Y-117530490D01*
X153357423Y-117530490D02*
X153309804Y-117578109D01*
X153309804Y-117578109D02*
X153214566Y-117625728D01*
X153214566Y-117625728D02*
X152833614Y-117625728D01*
X154357423Y-118101919D02*
X153785995Y-118101919D01*
X154071709Y-118101919D02*
X154071709Y-117101919D01*
X154071709Y-117101919D02*
X153976471Y-117244776D01*
X153976471Y-117244776D02*
X153881233Y-117340014D01*
X153881233Y-117340014D02*
X153785995Y-117387633D01*
X155262185Y-117101919D02*
X154785995Y-117101919D01*
X154785995Y-117101919D02*
X154738376Y-117578109D01*
X154738376Y-117578109D02*
X154785995Y-117530490D01*
X154785995Y-117530490D02*
X154881233Y-117482871D01*
X154881233Y-117482871D02*
X155119328Y-117482871D01*
X155119328Y-117482871D02*
X155214566Y-117530490D01*
X155214566Y-117530490D02*
X155262185Y-117578109D01*
X155262185Y-117578109D02*
X155309804Y-117673347D01*
X155309804Y-117673347D02*
X155309804Y-117911442D01*
X155309804Y-117911442D02*
X155262185Y-118006680D01*
X155262185Y-118006680D02*
X155214566Y-118054300D01*
X155214566Y-118054300D02*
X155119328Y-118101919D01*
X155119328Y-118101919D02*
X154881233Y-118101919D01*
X154881233Y-118101919D02*
X154785995Y-118054300D01*
X154785995Y-118054300D02*
X154738376Y-118006680D01*
X131550057Y-61515238D02*
X131502438Y-61610476D01*
X131502438Y-61610476D02*
X131407200Y-61705714D01*
X131407200Y-61705714D02*
X131264342Y-61848571D01*
X131264342Y-61848571D02*
X131216723Y-61943809D01*
X131216723Y-61943809D02*
X131216723Y-62039047D01*
X131454819Y-61991428D02*
X131407200Y-62086666D01*
X131407200Y-62086666D02*
X131311961Y-62181904D01*
X131311961Y-62181904D02*
X131121485Y-62229523D01*
X131121485Y-62229523D02*
X130788152Y-62229523D01*
X130788152Y-62229523D02*
X130597676Y-62181904D01*
X130597676Y-62181904D02*
X130502438Y-62086666D01*
X130502438Y-62086666D02*
X130454819Y-61991428D01*
X130454819Y-61991428D02*
X130454819Y-61800952D01*
X130454819Y-61800952D02*
X130502438Y-61705714D01*
X130502438Y-61705714D02*
X130597676Y-61610476D01*
X130597676Y-61610476D02*
X130788152Y-61562857D01*
X130788152Y-61562857D02*
X131121485Y-61562857D01*
X131121485Y-61562857D02*
X131311961Y-61610476D01*
X131311961Y-61610476D02*
X131407200Y-61705714D01*
X131407200Y-61705714D02*
X131454819Y-61800952D01*
X131454819Y-61800952D02*
X131454819Y-61991428D01*
X131454819Y-60610476D02*
X131454819Y-61181904D01*
X131454819Y-60896190D02*
X130454819Y-60896190D01*
X130454819Y-60896190D02*
X130597676Y-60991428D01*
X130597676Y-60991428D02*
X130692914Y-61086666D01*
X130692914Y-61086666D02*
X130740533Y-61181904D01*
X178122719Y-58736623D02*
X178837004Y-58736623D01*
X178837004Y-58736623D02*
X178979861Y-58784242D01*
X178979861Y-58784242D02*
X179075100Y-58879480D01*
X179075100Y-58879480D02*
X179122719Y-59022337D01*
X179122719Y-59022337D02*
X179122719Y-59117575D01*
X178122719Y-58355670D02*
X178122719Y-57736623D01*
X178122719Y-57736623D02*
X178503671Y-58069956D01*
X178503671Y-58069956D02*
X178503671Y-57927099D01*
X178503671Y-57927099D02*
X178551290Y-57831861D01*
X178551290Y-57831861D02*
X178598909Y-57784242D01*
X178598909Y-57784242D02*
X178694147Y-57736623D01*
X178694147Y-57736623D02*
X178932242Y-57736623D01*
X178932242Y-57736623D02*
X179027480Y-57784242D01*
X179027480Y-57784242D02*
X179075100Y-57831861D01*
X179075100Y-57831861D02*
X179122719Y-57927099D01*
X179122719Y-57927099D02*
X179122719Y-58212813D01*
X179122719Y-58212813D02*
X179075100Y-58308051D01*
X179075100Y-58308051D02*
X179027480Y-58355670D01*
X178122719Y-57117575D02*
X178122719Y-57022337D01*
X178122719Y-57022337D02*
X178170338Y-56927099D01*
X178170338Y-56927099D02*
X178217957Y-56879480D01*
X178217957Y-56879480D02*
X178313195Y-56831861D01*
X178313195Y-56831861D02*
X178503671Y-56784242D01*
X178503671Y-56784242D02*
X178741766Y-56784242D01*
X178741766Y-56784242D02*
X178932242Y-56831861D01*
X178932242Y-56831861D02*
X179027480Y-56879480D01*
X179027480Y-56879480D02*
X179075100Y-56927099D01*
X179075100Y-56927099D02*
X179122719Y-57022337D01*
X179122719Y-57022337D02*
X179122719Y-57117575D01*
X179122719Y-57117575D02*
X179075100Y-57212813D01*
X179075100Y-57212813D02*
X179027480Y-57260432D01*
X179027480Y-57260432D02*
X178932242Y-57308051D01*
X178932242Y-57308051D02*
X178741766Y-57355670D01*
X178741766Y-57355670D02*
X178503671Y-57355670D01*
X178503671Y-57355670D02*
X178313195Y-57308051D01*
X178313195Y-57308051D02*
X178217957Y-57260432D01*
X178217957Y-57260432D02*
X178170338Y-57212813D01*
X178170338Y-57212813D02*
X178122719Y-57117575D01*
X97690476Y-86084819D02*
X97690476Y-86799104D01*
X97690476Y-86799104D02*
X97642857Y-86941961D01*
X97642857Y-86941961D02*
X97547619Y-87037200D01*
X97547619Y-87037200D02*
X97404762Y-87084819D01*
X97404762Y-87084819D02*
X97309524Y-87084819D01*
X98690476Y-87084819D02*
X98119048Y-87084819D01*
X98404762Y-87084819D02*
X98404762Y-86084819D01*
X98404762Y-86084819D02*
X98309524Y-86227676D01*
X98309524Y-86227676D02*
X98214286Y-86322914D01*
X98214286Y-86322914D02*
X98119048Y-86370533D01*
X99642857Y-87084819D02*
X99071429Y-87084819D01*
X99357143Y-87084819D02*
X99357143Y-86084819D01*
X99357143Y-86084819D02*
X99261905Y-86227676D01*
X99261905Y-86227676D02*
X99166667Y-86322914D01*
X99166667Y-86322914D02*
X99071429Y-86370533D01*
X176025042Y-129161919D02*
X175691709Y-128685728D01*
X175453614Y-129161919D02*
X175453614Y-128161919D01*
X175453614Y-128161919D02*
X175834566Y-128161919D01*
X175834566Y-128161919D02*
X175929804Y-128209538D01*
X175929804Y-128209538D02*
X175977423Y-128257157D01*
X175977423Y-128257157D02*
X176025042Y-128352395D01*
X176025042Y-128352395D02*
X176025042Y-128495252D01*
X176025042Y-128495252D02*
X175977423Y-128590490D01*
X175977423Y-128590490D02*
X175929804Y-128638109D01*
X175929804Y-128638109D02*
X175834566Y-128685728D01*
X175834566Y-128685728D02*
X175453614Y-128685728D01*
X176977423Y-129161919D02*
X176405995Y-129161919D01*
X176691709Y-129161919D02*
X176691709Y-128161919D01*
X176691709Y-128161919D02*
X176596471Y-128304776D01*
X176596471Y-128304776D02*
X176501233Y-128400014D01*
X176501233Y-128400014D02*
X176405995Y-128447633D01*
X177310757Y-128161919D02*
X177929804Y-128161919D01*
X177929804Y-128161919D02*
X177596471Y-128542871D01*
X177596471Y-128542871D02*
X177739328Y-128542871D01*
X177739328Y-128542871D02*
X177834566Y-128590490D01*
X177834566Y-128590490D02*
X177882185Y-128638109D01*
X177882185Y-128638109D02*
X177929804Y-128733347D01*
X177929804Y-128733347D02*
X177929804Y-128971442D01*
X177929804Y-128971442D02*
X177882185Y-129066680D01*
X177882185Y-129066680D02*
X177834566Y-129114300D01*
X177834566Y-129114300D02*
X177739328Y-129161919D01*
X177739328Y-129161919D02*
X177453614Y-129161919D01*
X177453614Y-129161919D02*
X177358376Y-129114300D01*
X177358376Y-129114300D02*
X177310757Y-129066680D01*
X83738376Y-38111919D02*
X83738376Y-38826204D01*
X83738376Y-38826204D02*
X83690757Y-38969061D01*
X83690757Y-38969061D02*
X83595519Y-39064300D01*
X83595519Y-39064300D02*
X83452662Y-39111919D01*
X83452662Y-39111919D02*
X83357424Y-39111919D01*
X84738376Y-39111919D02*
X84166948Y-39111919D01*
X84452662Y-39111919D02*
X84452662Y-38111919D01*
X84452662Y-38111919D02*
X84357424Y-38254776D01*
X84357424Y-38254776D02*
X84262186Y-38350014D01*
X84262186Y-38350014D02*
X84166948Y-38397633D01*
X85595519Y-38445252D02*
X85595519Y-39111919D01*
X85357424Y-38064300D02*
X85119329Y-38778585D01*
X85119329Y-38778585D02*
X85738376Y-38778585D01*
X190282719Y-121069957D02*
X189806528Y-121403290D01*
X190282719Y-121641385D02*
X189282719Y-121641385D01*
X189282719Y-121641385D02*
X189282719Y-121260433D01*
X189282719Y-121260433D02*
X189330338Y-121165195D01*
X189330338Y-121165195D02*
X189377957Y-121117576D01*
X189377957Y-121117576D02*
X189473195Y-121069957D01*
X189473195Y-121069957D02*
X189616052Y-121069957D01*
X189616052Y-121069957D02*
X189711290Y-121117576D01*
X189711290Y-121117576D02*
X189758909Y-121165195D01*
X189758909Y-121165195D02*
X189806528Y-121260433D01*
X189806528Y-121260433D02*
X189806528Y-121641385D01*
X190282719Y-120117576D02*
X190282719Y-120689004D01*
X190282719Y-120403290D02*
X189282719Y-120403290D01*
X189282719Y-120403290D02*
X189425576Y-120498528D01*
X189425576Y-120498528D02*
X189520814Y-120593766D01*
X189520814Y-120593766D02*
X189568433Y-120689004D01*
X189616052Y-119260433D02*
X190282719Y-119260433D01*
X189235100Y-119498528D02*
X189949385Y-119736623D01*
X189949385Y-119736623D02*
X189949385Y-119117576D01*
X59190476Y-55184819D02*
X59190476Y-55899104D01*
X59190476Y-55899104D02*
X59142857Y-56041961D01*
X59142857Y-56041961D02*
X59047619Y-56137200D01*
X59047619Y-56137200D02*
X58904762Y-56184819D01*
X58904762Y-56184819D02*
X58809524Y-56184819D01*
X60190476Y-56184819D02*
X59619048Y-56184819D01*
X59904762Y-56184819D02*
X59904762Y-55184819D01*
X59904762Y-55184819D02*
X59809524Y-55327676D01*
X59809524Y-55327676D02*
X59714286Y-55422914D01*
X59714286Y-55422914D02*
X59619048Y-55470533D01*
X61047619Y-55184819D02*
X60857143Y-55184819D01*
X60857143Y-55184819D02*
X60761905Y-55232438D01*
X60761905Y-55232438D02*
X60714286Y-55280057D01*
X60714286Y-55280057D02*
X60619048Y-55422914D01*
X60619048Y-55422914D02*
X60571429Y-55613390D01*
X60571429Y-55613390D02*
X60571429Y-55994342D01*
X60571429Y-55994342D02*
X60619048Y-56089580D01*
X60619048Y-56089580D02*
X60666667Y-56137200D01*
X60666667Y-56137200D02*
X60761905Y-56184819D01*
X60761905Y-56184819D02*
X60952381Y-56184819D01*
X60952381Y-56184819D02*
X61047619Y-56137200D01*
X61047619Y-56137200D02*
X61095238Y-56089580D01*
X61095238Y-56089580D02*
X61142857Y-55994342D01*
X61142857Y-55994342D02*
X61142857Y-55756247D01*
X61142857Y-55756247D02*
X61095238Y-55661009D01*
X61095238Y-55661009D02*
X61047619Y-55613390D01*
X61047619Y-55613390D02*
X60952381Y-55565771D01*
X60952381Y-55565771D02*
X60761905Y-55565771D01*
X60761905Y-55565771D02*
X60666667Y-55613390D01*
X60666667Y-55613390D02*
X60619048Y-55661009D01*
X60619048Y-55661009D02*
X60571429Y-55756247D01*
X87584819Y-101971904D02*
X88394342Y-101971904D01*
X88394342Y-101971904D02*
X88489580Y-101924285D01*
X88489580Y-101924285D02*
X88537200Y-101876666D01*
X88537200Y-101876666D02*
X88584819Y-101781428D01*
X88584819Y-101781428D02*
X88584819Y-101590952D01*
X88584819Y-101590952D02*
X88537200Y-101495714D01*
X88537200Y-101495714D02*
X88489580Y-101448095D01*
X88489580Y-101448095D02*
X88394342Y-101400476D01*
X88394342Y-101400476D02*
X87584819Y-101400476D01*
X87680057Y-100971904D02*
X87632438Y-100924285D01*
X87632438Y-100924285D02*
X87584819Y-100829047D01*
X87584819Y-100829047D02*
X87584819Y-100590952D01*
X87584819Y-100590952D02*
X87632438Y-100495714D01*
X87632438Y-100495714D02*
X87680057Y-100448095D01*
X87680057Y-100448095D02*
X87775295Y-100400476D01*
X87775295Y-100400476D02*
X87870533Y-100400476D01*
X87870533Y-100400476D02*
X88013390Y-100448095D01*
X88013390Y-100448095D02*
X88584819Y-101019523D01*
X88584819Y-101019523D02*
X88584819Y-100400476D01*
X91084819Y-115246666D02*
X90608628Y-115579999D01*
X91084819Y-115818094D02*
X90084819Y-115818094D01*
X90084819Y-115818094D02*
X90084819Y-115437142D01*
X90084819Y-115437142D02*
X90132438Y-115341904D01*
X90132438Y-115341904D02*
X90180057Y-115294285D01*
X90180057Y-115294285D02*
X90275295Y-115246666D01*
X90275295Y-115246666D02*
X90418152Y-115246666D01*
X90418152Y-115246666D02*
X90513390Y-115294285D01*
X90513390Y-115294285D02*
X90561009Y-115341904D01*
X90561009Y-115341904D02*
X90608628Y-115437142D01*
X90608628Y-115437142D02*
X90608628Y-115818094D01*
X91084819Y-114770475D02*
X91084819Y-114579999D01*
X91084819Y-114579999D02*
X91037200Y-114484761D01*
X91037200Y-114484761D02*
X90989580Y-114437142D01*
X90989580Y-114437142D02*
X90846723Y-114341904D01*
X90846723Y-114341904D02*
X90656247Y-114294285D01*
X90656247Y-114294285D02*
X90275295Y-114294285D01*
X90275295Y-114294285D02*
X90180057Y-114341904D01*
X90180057Y-114341904D02*
X90132438Y-114389523D01*
X90132438Y-114389523D02*
X90084819Y-114484761D01*
X90084819Y-114484761D02*
X90084819Y-114675237D01*
X90084819Y-114675237D02*
X90132438Y-114770475D01*
X90132438Y-114770475D02*
X90180057Y-114818094D01*
X90180057Y-114818094D02*
X90275295Y-114865713D01*
X90275295Y-114865713D02*
X90513390Y-114865713D01*
X90513390Y-114865713D02*
X90608628Y-114818094D01*
X90608628Y-114818094D02*
X90656247Y-114770475D01*
X90656247Y-114770475D02*
X90703866Y-114675237D01*
X90703866Y-114675237D02*
X90703866Y-114484761D01*
X90703866Y-114484761D02*
X90656247Y-114389523D01*
X90656247Y-114389523D02*
X90608628Y-114341904D01*
X90608628Y-114341904D02*
X90513390Y-114294285D01*
X117084819Y-102256904D02*
X117894342Y-102256904D01*
X117894342Y-102256904D02*
X117989580Y-102209285D01*
X117989580Y-102209285D02*
X118037200Y-102161666D01*
X118037200Y-102161666D02*
X118084819Y-102066428D01*
X118084819Y-102066428D02*
X118084819Y-101875952D01*
X118084819Y-101875952D02*
X118037200Y-101780714D01*
X118037200Y-101780714D02*
X117989580Y-101733095D01*
X117989580Y-101733095D02*
X117894342Y-101685476D01*
X117894342Y-101685476D02*
X117084819Y-101685476D01*
X117418152Y-100780714D02*
X118084819Y-100780714D01*
X117037200Y-101018809D02*
X117751485Y-101256904D01*
X117751485Y-101256904D02*
X117751485Y-100637857D01*
X153405042Y-134601919D02*
X153071709Y-134125728D01*
X152833614Y-134601919D02*
X152833614Y-133601919D01*
X152833614Y-133601919D02*
X153214566Y-133601919D01*
X153214566Y-133601919D02*
X153309804Y-133649538D01*
X153309804Y-133649538D02*
X153357423Y-133697157D01*
X153357423Y-133697157D02*
X153405042Y-133792395D01*
X153405042Y-133792395D02*
X153405042Y-133935252D01*
X153405042Y-133935252D02*
X153357423Y-134030490D01*
X153357423Y-134030490D02*
X153309804Y-134078109D01*
X153309804Y-134078109D02*
X153214566Y-134125728D01*
X153214566Y-134125728D02*
X152833614Y-134125728D01*
X154357423Y-134601919D02*
X153785995Y-134601919D01*
X154071709Y-134601919D02*
X154071709Y-133601919D01*
X154071709Y-133601919D02*
X153976471Y-133744776D01*
X153976471Y-133744776D02*
X153881233Y-133840014D01*
X153881233Y-133840014D02*
X153785995Y-133887633D01*
X154738376Y-133697157D02*
X154785995Y-133649538D01*
X154785995Y-133649538D02*
X154881233Y-133601919D01*
X154881233Y-133601919D02*
X155119328Y-133601919D01*
X155119328Y-133601919D02*
X155214566Y-133649538D01*
X155214566Y-133649538D02*
X155262185Y-133697157D01*
X155262185Y-133697157D02*
X155309804Y-133792395D01*
X155309804Y-133792395D02*
X155309804Y-133887633D01*
X155309804Y-133887633D02*
X155262185Y-134030490D01*
X155262185Y-134030490D02*
X154690757Y-134601919D01*
X154690757Y-134601919D02*
X155309804Y-134601919D01*
X167988376Y-77681919D02*
X167988376Y-78396204D01*
X167988376Y-78396204D02*
X167940757Y-78539061D01*
X167940757Y-78539061D02*
X167845519Y-78634300D01*
X167845519Y-78634300D02*
X167702662Y-78681919D01*
X167702662Y-78681919D02*
X167607424Y-78681919D01*
X168369329Y-77681919D02*
X168988376Y-77681919D01*
X168988376Y-77681919D02*
X168655043Y-78062871D01*
X168655043Y-78062871D02*
X168797900Y-78062871D01*
X168797900Y-78062871D02*
X168893138Y-78110490D01*
X168893138Y-78110490D02*
X168940757Y-78158109D01*
X168940757Y-78158109D02*
X168988376Y-78253347D01*
X168988376Y-78253347D02*
X168988376Y-78491442D01*
X168988376Y-78491442D02*
X168940757Y-78586680D01*
X168940757Y-78586680D02*
X168893138Y-78634300D01*
X168893138Y-78634300D02*
X168797900Y-78681919D01*
X168797900Y-78681919D02*
X168512186Y-78681919D01*
X168512186Y-78681919D02*
X168416948Y-78634300D01*
X168416948Y-78634300D02*
X168369329Y-78586680D01*
X169940757Y-78681919D02*
X169369329Y-78681919D01*
X169655043Y-78681919D02*
X169655043Y-77681919D01*
X169655043Y-77681919D02*
X169559805Y-77824776D01*
X169559805Y-77824776D02*
X169464567Y-77920014D01*
X169464567Y-77920014D02*
X169369329Y-77967633D01*
X166502157Y-62048138D02*
X166454538Y-62143376D01*
X166454538Y-62143376D02*
X166359300Y-62238614D01*
X166359300Y-62238614D02*
X166216442Y-62381471D01*
X166216442Y-62381471D02*
X166168823Y-62476709D01*
X166168823Y-62476709D02*
X166168823Y-62571947D01*
X166406919Y-62524328D02*
X166359300Y-62619566D01*
X166359300Y-62619566D02*
X166264061Y-62714804D01*
X166264061Y-62714804D02*
X166073585Y-62762423D01*
X166073585Y-62762423D02*
X165740252Y-62762423D01*
X165740252Y-62762423D02*
X165549776Y-62714804D01*
X165549776Y-62714804D02*
X165454538Y-62619566D01*
X165454538Y-62619566D02*
X165406919Y-62524328D01*
X165406919Y-62524328D02*
X165406919Y-62333852D01*
X165406919Y-62333852D02*
X165454538Y-62238614D01*
X165454538Y-62238614D02*
X165549776Y-62143376D01*
X165549776Y-62143376D02*
X165740252Y-62095757D01*
X165740252Y-62095757D02*
X166073585Y-62095757D01*
X166073585Y-62095757D02*
X166264061Y-62143376D01*
X166264061Y-62143376D02*
X166359300Y-62238614D01*
X166359300Y-62238614D02*
X166406919Y-62333852D01*
X166406919Y-62333852D02*
X166406919Y-62524328D01*
X165406919Y-61762423D02*
X165406919Y-61143376D01*
X165406919Y-61143376D02*
X165787871Y-61476709D01*
X165787871Y-61476709D02*
X165787871Y-61333852D01*
X165787871Y-61333852D02*
X165835490Y-61238614D01*
X165835490Y-61238614D02*
X165883109Y-61190995D01*
X165883109Y-61190995D02*
X165978347Y-61143376D01*
X165978347Y-61143376D02*
X166216442Y-61143376D01*
X166216442Y-61143376D02*
X166311680Y-61190995D01*
X166311680Y-61190995D02*
X166359300Y-61238614D01*
X166359300Y-61238614D02*
X166406919Y-61333852D01*
X166406919Y-61333852D02*
X166406919Y-61619566D01*
X166406919Y-61619566D02*
X166359300Y-61714804D01*
X166359300Y-61714804D02*
X166311680Y-61762423D01*
X174525042Y-112661919D02*
X174191709Y-112185728D01*
X173953614Y-112661919D02*
X173953614Y-111661919D01*
X173953614Y-111661919D02*
X174334566Y-111661919D01*
X174334566Y-111661919D02*
X174429804Y-111709538D01*
X174429804Y-111709538D02*
X174477423Y-111757157D01*
X174477423Y-111757157D02*
X174525042Y-111852395D01*
X174525042Y-111852395D02*
X174525042Y-111995252D01*
X174525042Y-111995252D02*
X174477423Y-112090490D01*
X174477423Y-112090490D02*
X174429804Y-112138109D01*
X174429804Y-112138109D02*
X174334566Y-112185728D01*
X174334566Y-112185728D02*
X173953614Y-112185728D01*
X175477423Y-112661919D02*
X174905995Y-112661919D01*
X175191709Y-112661919D02*
X175191709Y-111661919D01*
X175191709Y-111661919D02*
X175096471Y-111804776D01*
X175096471Y-111804776D02*
X175001233Y-111900014D01*
X175001233Y-111900014D02*
X174905995Y-111947633D01*
X176334566Y-111661919D02*
X176144090Y-111661919D01*
X176144090Y-111661919D02*
X176048852Y-111709538D01*
X176048852Y-111709538D02*
X176001233Y-111757157D01*
X176001233Y-111757157D02*
X175905995Y-111900014D01*
X175905995Y-111900014D02*
X175858376Y-112090490D01*
X175858376Y-112090490D02*
X175858376Y-112471442D01*
X175858376Y-112471442D02*
X175905995Y-112566680D01*
X175905995Y-112566680D02*
X175953614Y-112614300D01*
X175953614Y-112614300D02*
X176048852Y-112661919D01*
X176048852Y-112661919D02*
X176239328Y-112661919D01*
X176239328Y-112661919D02*
X176334566Y-112614300D01*
X176334566Y-112614300D02*
X176382185Y-112566680D01*
X176382185Y-112566680D02*
X176429804Y-112471442D01*
X176429804Y-112471442D02*
X176429804Y-112233347D01*
X176429804Y-112233347D02*
X176382185Y-112138109D01*
X176382185Y-112138109D02*
X176334566Y-112090490D01*
X176334566Y-112090490D02*
X176239328Y-112042871D01*
X176239328Y-112042871D02*
X176048852Y-112042871D01*
X176048852Y-112042871D02*
X175953614Y-112090490D01*
X175953614Y-112090490D02*
X175905995Y-112138109D01*
X175905995Y-112138109D02*
X175858376Y-112233347D01*
X82183138Y-51877042D02*
X82278376Y-51924661D01*
X82278376Y-51924661D02*
X82373614Y-52019900D01*
X82373614Y-52019900D02*
X82516471Y-52162757D01*
X82516471Y-52162757D02*
X82611709Y-52210376D01*
X82611709Y-52210376D02*
X82706947Y-52210376D01*
X82659328Y-51972280D02*
X82754566Y-52019900D01*
X82754566Y-52019900D02*
X82849804Y-52115138D01*
X82849804Y-52115138D02*
X82897423Y-52305614D01*
X82897423Y-52305614D02*
X82897423Y-52638947D01*
X82897423Y-52638947D02*
X82849804Y-52829423D01*
X82849804Y-52829423D02*
X82754566Y-52924661D01*
X82754566Y-52924661D02*
X82659328Y-52972280D01*
X82659328Y-52972280D02*
X82468852Y-52972280D01*
X82468852Y-52972280D02*
X82373614Y-52924661D01*
X82373614Y-52924661D02*
X82278376Y-52829423D01*
X82278376Y-52829423D02*
X82230757Y-52638947D01*
X82230757Y-52638947D02*
X82230757Y-52305614D01*
X82230757Y-52305614D02*
X82278376Y-52115138D01*
X82278376Y-52115138D02*
X82373614Y-52019900D01*
X82373614Y-52019900D02*
X82468852Y-51972280D01*
X82468852Y-51972280D02*
X82659328Y-51972280D01*
X81373614Y-52972280D02*
X81564090Y-52972280D01*
X81564090Y-52972280D02*
X81659328Y-52924661D01*
X81659328Y-52924661D02*
X81706947Y-52877042D01*
X81706947Y-52877042D02*
X81802185Y-52734185D01*
X81802185Y-52734185D02*
X81849804Y-52543709D01*
X81849804Y-52543709D02*
X81849804Y-52162757D01*
X81849804Y-52162757D02*
X81802185Y-52067519D01*
X81802185Y-52067519D02*
X81754566Y-52019900D01*
X81754566Y-52019900D02*
X81659328Y-51972280D01*
X81659328Y-51972280D02*
X81468852Y-51972280D01*
X81468852Y-51972280D02*
X81373614Y-52019900D01*
X81373614Y-52019900D02*
X81325995Y-52067519D01*
X81325995Y-52067519D02*
X81278376Y-52162757D01*
X81278376Y-52162757D02*
X81278376Y-52400852D01*
X81278376Y-52400852D02*
X81325995Y-52496090D01*
X81325995Y-52496090D02*
X81373614Y-52543709D01*
X81373614Y-52543709D02*
X81468852Y-52591328D01*
X81468852Y-52591328D02*
X81659328Y-52591328D01*
X81659328Y-52591328D02*
X81754566Y-52543709D01*
X81754566Y-52543709D02*
X81802185Y-52496090D01*
X81802185Y-52496090D02*
X81849804Y-52400852D01*
X149714566Y-138991919D02*
X149714566Y-139706204D01*
X149714566Y-139706204D02*
X149666947Y-139849061D01*
X149666947Y-139849061D02*
X149571709Y-139944300D01*
X149571709Y-139944300D02*
X149428852Y-139991919D01*
X149428852Y-139991919D02*
X149333614Y-139991919D01*
X150666947Y-138991919D02*
X150190757Y-138991919D01*
X150190757Y-138991919D02*
X150143138Y-139468109D01*
X150143138Y-139468109D02*
X150190757Y-139420490D01*
X150190757Y-139420490D02*
X150285995Y-139372871D01*
X150285995Y-139372871D02*
X150524090Y-139372871D01*
X150524090Y-139372871D02*
X150619328Y-139420490D01*
X150619328Y-139420490D02*
X150666947Y-139468109D01*
X150666947Y-139468109D02*
X150714566Y-139563347D01*
X150714566Y-139563347D02*
X150714566Y-139801442D01*
X150714566Y-139801442D02*
X150666947Y-139896680D01*
X150666947Y-139896680D02*
X150619328Y-139944300D01*
X150619328Y-139944300D02*
X150524090Y-139991919D01*
X150524090Y-139991919D02*
X150285995Y-139991919D01*
X150285995Y-139991919D02*
X150190757Y-139944300D01*
X150190757Y-139944300D02*
X150143138Y-139896680D01*
X160222719Y-150093766D02*
X159746528Y-150427099D01*
X160222719Y-150665194D02*
X159222719Y-150665194D01*
X159222719Y-150665194D02*
X159222719Y-150284242D01*
X159222719Y-150284242D02*
X159270338Y-150189004D01*
X159270338Y-150189004D02*
X159317957Y-150141385D01*
X159317957Y-150141385D02*
X159413195Y-150093766D01*
X159413195Y-150093766D02*
X159556052Y-150093766D01*
X159556052Y-150093766D02*
X159651290Y-150141385D01*
X159651290Y-150141385D02*
X159698909Y-150189004D01*
X159698909Y-150189004D02*
X159746528Y-150284242D01*
X159746528Y-150284242D02*
X159746528Y-150665194D01*
X159317957Y-149712813D02*
X159270338Y-149665194D01*
X159270338Y-149665194D02*
X159222719Y-149569956D01*
X159222719Y-149569956D02*
X159222719Y-149331861D01*
X159222719Y-149331861D02*
X159270338Y-149236623D01*
X159270338Y-149236623D02*
X159317957Y-149189004D01*
X159317957Y-149189004D02*
X159413195Y-149141385D01*
X159413195Y-149141385D02*
X159508433Y-149141385D01*
X159508433Y-149141385D02*
X159651290Y-149189004D01*
X159651290Y-149189004D02*
X160222719Y-149760432D01*
X160222719Y-149760432D02*
X160222719Y-149141385D01*
X58690476Y-40684819D02*
X58690476Y-41399104D01*
X58690476Y-41399104D02*
X58642857Y-41541961D01*
X58642857Y-41541961D02*
X58547619Y-41637200D01*
X58547619Y-41637200D02*
X58404762Y-41684819D01*
X58404762Y-41684819D02*
X58309524Y-41684819D01*
X59690476Y-41684819D02*
X59119048Y-41684819D01*
X59404762Y-41684819D02*
X59404762Y-40684819D01*
X59404762Y-40684819D02*
X59309524Y-40827676D01*
X59309524Y-40827676D02*
X59214286Y-40922914D01*
X59214286Y-40922914D02*
X59119048Y-40970533D01*
X60595238Y-40684819D02*
X60119048Y-40684819D01*
X60119048Y-40684819D02*
X60071429Y-41161009D01*
X60071429Y-41161009D02*
X60119048Y-41113390D01*
X60119048Y-41113390D02*
X60214286Y-41065771D01*
X60214286Y-41065771D02*
X60452381Y-41065771D01*
X60452381Y-41065771D02*
X60547619Y-41113390D01*
X60547619Y-41113390D02*
X60595238Y-41161009D01*
X60595238Y-41161009D02*
X60642857Y-41256247D01*
X60642857Y-41256247D02*
X60642857Y-41494342D01*
X60642857Y-41494342D02*
X60595238Y-41589580D01*
X60595238Y-41589580D02*
X60547619Y-41637200D01*
X60547619Y-41637200D02*
X60452381Y-41684819D01*
X60452381Y-41684819D02*
X60214286Y-41684819D01*
X60214286Y-41684819D02*
X60119048Y-41637200D01*
X60119048Y-41637200D02*
X60071429Y-41589580D01*
X105643138Y-51377042D02*
X105738376Y-51424661D01*
X105738376Y-51424661D02*
X105833614Y-51519900D01*
X105833614Y-51519900D02*
X105976471Y-51662757D01*
X105976471Y-51662757D02*
X106071709Y-51710376D01*
X106071709Y-51710376D02*
X106166947Y-51710376D01*
X106119328Y-51472280D02*
X106214566Y-51519900D01*
X106214566Y-51519900D02*
X106309804Y-51615138D01*
X106309804Y-51615138D02*
X106357423Y-51805614D01*
X106357423Y-51805614D02*
X106357423Y-52138947D01*
X106357423Y-52138947D02*
X106309804Y-52329423D01*
X106309804Y-52329423D02*
X106214566Y-52424661D01*
X106214566Y-52424661D02*
X106119328Y-52472280D01*
X106119328Y-52472280D02*
X105928852Y-52472280D01*
X105928852Y-52472280D02*
X105833614Y-52424661D01*
X105833614Y-52424661D02*
X105738376Y-52329423D01*
X105738376Y-52329423D02*
X105690757Y-52138947D01*
X105690757Y-52138947D02*
X105690757Y-51805614D01*
X105690757Y-51805614D02*
X105738376Y-51615138D01*
X105738376Y-51615138D02*
X105833614Y-51519900D01*
X105833614Y-51519900D02*
X105928852Y-51472280D01*
X105928852Y-51472280D02*
X106119328Y-51472280D01*
X104785995Y-52472280D02*
X105262185Y-52472280D01*
X105262185Y-52472280D02*
X105309804Y-51996090D01*
X105309804Y-51996090D02*
X105262185Y-52043709D01*
X105262185Y-52043709D02*
X105166947Y-52091328D01*
X105166947Y-52091328D02*
X104928852Y-52091328D01*
X104928852Y-52091328D02*
X104833614Y-52043709D01*
X104833614Y-52043709D02*
X104785995Y-51996090D01*
X104785995Y-51996090D02*
X104738376Y-51900852D01*
X104738376Y-51900852D02*
X104738376Y-51662757D01*
X104738376Y-51662757D02*
X104785995Y-51567519D01*
X104785995Y-51567519D02*
X104833614Y-51519900D01*
X104833614Y-51519900D02*
X104928852Y-51472280D01*
X104928852Y-51472280D02*
X105166947Y-51472280D01*
X105166947Y-51472280D02*
X105262185Y-51519900D01*
X105262185Y-51519900D02*
X105309804Y-51567519D01*
X75084819Y-115666666D02*
X74608628Y-115999999D01*
X75084819Y-116238094D02*
X74084819Y-116238094D01*
X74084819Y-116238094D02*
X74084819Y-115857142D01*
X74084819Y-115857142D02*
X74132438Y-115761904D01*
X74132438Y-115761904D02*
X74180057Y-115714285D01*
X74180057Y-115714285D02*
X74275295Y-115666666D01*
X74275295Y-115666666D02*
X74418152Y-115666666D01*
X74418152Y-115666666D02*
X74513390Y-115714285D01*
X74513390Y-115714285D02*
X74561009Y-115761904D01*
X74561009Y-115761904D02*
X74608628Y-115857142D01*
X74608628Y-115857142D02*
X74608628Y-116238094D01*
X74084819Y-114809523D02*
X74084819Y-114999999D01*
X74084819Y-114999999D02*
X74132438Y-115095237D01*
X74132438Y-115095237D02*
X74180057Y-115142856D01*
X74180057Y-115142856D02*
X74322914Y-115238094D01*
X74322914Y-115238094D02*
X74513390Y-115285713D01*
X74513390Y-115285713D02*
X74894342Y-115285713D01*
X74894342Y-115285713D02*
X74989580Y-115238094D01*
X74989580Y-115238094D02*
X75037200Y-115190475D01*
X75037200Y-115190475D02*
X75084819Y-115095237D01*
X75084819Y-115095237D02*
X75084819Y-114904761D01*
X75084819Y-114904761D02*
X75037200Y-114809523D01*
X75037200Y-114809523D02*
X74989580Y-114761904D01*
X74989580Y-114761904D02*
X74894342Y-114714285D01*
X74894342Y-114714285D02*
X74656247Y-114714285D01*
X74656247Y-114714285D02*
X74561009Y-114761904D01*
X74561009Y-114761904D02*
X74513390Y-114809523D01*
X74513390Y-114809523D02*
X74465771Y-114904761D01*
X74465771Y-114904761D02*
X74465771Y-115095237D01*
X74465771Y-115095237D02*
X74513390Y-115190475D01*
X74513390Y-115190475D02*
X74561009Y-115238094D01*
X74561009Y-115238094D02*
X74656247Y-115285713D01*
X94684819Y-129809523D02*
X95399104Y-129809523D01*
X95399104Y-129809523D02*
X95541961Y-129857142D01*
X95541961Y-129857142D02*
X95637200Y-129952380D01*
X95637200Y-129952380D02*
X95684819Y-130095237D01*
X95684819Y-130095237D02*
X95684819Y-130190475D01*
X94780057Y-129380951D02*
X94732438Y-129333332D01*
X94732438Y-129333332D02*
X94684819Y-129238094D01*
X94684819Y-129238094D02*
X94684819Y-128999999D01*
X94684819Y-128999999D02*
X94732438Y-128904761D01*
X94732438Y-128904761D02*
X94780057Y-128857142D01*
X94780057Y-128857142D02*
X94875295Y-128809523D01*
X94875295Y-128809523D02*
X94970533Y-128809523D01*
X94970533Y-128809523D02*
X95113390Y-128857142D01*
X95113390Y-128857142D02*
X95684819Y-129428570D01*
X95684819Y-129428570D02*
X95684819Y-128809523D01*
X94684819Y-128476189D02*
X94684819Y-127857142D01*
X94684819Y-127857142D02*
X95065771Y-128190475D01*
X95065771Y-128190475D02*
X95065771Y-128047618D01*
X95065771Y-128047618D02*
X95113390Y-127952380D01*
X95113390Y-127952380D02*
X95161009Y-127904761D01*
X95161009Y-127904761D02*
X95256247Y-127857142D01*
X95256247Y-127857142D02*
X95494342Y-127857142D01*
X95494342Y-127857142D02*
X95589580Y-127904761D01*
X95589580Y-127904761D02*
X95637200Y-127952380D01*
X95637200Y-127952380D02*
X95684819Y-128047618D01*
X95684819Y-128047618D02*
X95684819Y-128333332D01*
X95684819Y-128333332D02*
X95637200Y-128428570D01*
X95637200Y-128428570D02*
X95589580Y-128476189D01*
X83084819Y-115166666D02*
X82608628Y-115499999D01*
X83084819Y-115738094D02*
X82084819Y-115738094D01*
X82084819Y-115738094D02*
X82084819Y-115357142D01*
X82084819Y-115357142D02*
X82132438Y-115261904D01*
X82132438Y-115261904D02*
X82180057Y-115214285D01*
X82180057Y-115214285D02*
X82275295Y-115166666D01*
X82275295Y-115166666D02*
X82418152Y-115166666D01*
X82418152Y-115166666D02*
X82513390Y-115214285D01*
X82513390Y-115214285D02*
X82561009Y-115261904D01*
X82561009Y-115261904D02*
X82608628Y-115357142D01*
X82608628Y-115357142D02*
X82608628Y-115738094D01*
X82513390Y-114595237D02*
X82465771Y-114690475D01*
X82465771Y-114690475D02*
X82418152Y-114738094D01*
X82418152Y-114738094D02*
X82322914Y-114785713D01*
X82322914Y-114785713D02*
X82275295Y-114785713D01*
X82275295Y-114785713D02*
X82180057Y-114738094D01*
X82180057Y-114738094D02*
X82132438Y-114690475D01*
X82132438Y-114690475D02*
X82084819Y-114595237D01*
X82084819Y-114595237D02*
X82084819Y-114404761D01*
X82084819Y-114404761D02*
X82132438Y-114309523D01*
X82132438Y-114309523D02*
X82180057Y-114261904D01*
X82180057Y-114261904D02*
X82275295Y-114214285D01*
X82275295Y-114214285D02*
X82322914Y-114214285D01*
X82322914Y-114214285D02*
X82418152Y-114261904D01*
X82418152Y-114261904D02*
X82465771Y-114309523D01*
X82465771Y-114309523D02*
X82513390Y-114404761D01*
X82513390Y-114404761D02*
X82513390Y-114595237D01*
X82513390Y-114595237D02*
X82561009Y-114690475D01*
X82561009Y-114690475D02*
X82608628Y-114738094D01*
X82608628Y-114738094D02*
X82703866Y-114785713D01*
X82703866Y-114785713D02*
X82894342Y-114785713D01*
X82894342Y-114785713D02*
X82989580Y-114738094D01*
X82989580Y-114738094D02*
X83037200Y-114690475D01*
X83037200Y-114690475D02*
X83084819Y-114595237D01*
X83084819Y-114595237D02*
X83084819Y-114404761D01*
X83084819Y-114404761D02*
X83037200Y-114309523D01*
X83037200Y-114309523D02*
X82989580Y-114261904D01*
X82989580Y-114261904D02*
X82894342Y-114214285D01*
X82894342Y-114214285D02*
X82703866Y-114214285D01*
X82703866Y-114214285D02*
X82608628Y-114261904D01*
X82608628Y-114261904D02*
X82561009Y-114309523D01*
X82561009Y-114309523D02*
X82513390Y-114404761D01*
D11*
%TO.C,U1*%
X74670000Y-99810000D02*
G75*
G02*
X74670000Y-101810000I0J-1000000D01*
G01*
X82410000Y-103460000D02*
X82410000Y-98160000D01*
X82410000Y-98160000D02*
X74670000Y-98160000D01*
X74670000Y-103460000D02*
X82410000Y-103460000D01*
X74670000Y-101810000D02*
X74670000Y-103460000D01*
X74670000Y-98160000D02*
X74670000Y-99810000D01*
%TO.C,SW2*%
X157047900Y-122677100D02*
X157047900Y-124177100D01*
X158297900Y-126677100D02*
X162797900Y-126677100D01*
X162797900Y-120177100D02*
X158297900Y-120177100D01*
X164047900Y-124177100D02*
X164047900Y-122677100D01*
D12*
%TO.C,Q4*%
X113264700Y-46004300D02*
X113264700Y-50754100D01*
X113264700Y-50754100D02*
X123831100Y-50754100D01*
X123704100Y-49458700D02*
X113391700Y-49458700D01*
X123831100Y-46004300D02*
X113264700Y-46004300D01*
X123831100Y-50754100D02*
X123831100Y-46004300D01*
X125812300Y-47927100D02*
G75*
G02*
X125405900Y-47927100I-203200J0D01*
G01*
X125405900Y-47927100D02*
G75*
G02*
X125812300Y-47927100I203200J0D01*
G01*
D11*
%TO.C,J20*%
X114170000Y-82590000D02*
X114170000Y-59670000D01*
X114170000Y-85190000D02*
X114170000Y-83860000D01*
X115500000Y-85190000D02*
X114170000Y-85190000D01*
X116830000Y-59670000D02*
X114170000Y-59670000D01*
X116830000Y-82590000D02*
X114170000Y-82590000D01*
X116830000Y-82590000D02*
X116830000Y-59670000D01*
%TO.C,J28*%
X79170000Y-132670000D02*
X79170000Y-135330000D01*
X86850000Y-132670000D02*
X79170000Y-132670000D01*
X86850000Y-132670000D02*
X86850000Y-135330000D01*
X86850000Y-135330000D02*
X79170000Y-135330000D01*
X89450000Y-134000000D02*
X89450000Y-135330000D01*
X89450000Y-135330000D02*
X88120000Y-135330000D01*
D12*
%TO.C,Q2*%
X150173000Y-56136800D02*
X150173000Y-66703200D01*
X150173000Y-66703200D02*
X154922800Y-66703200D01*
X151468400Y-66576200D02*
X151468400Y-56263800D01*
X154922800Y-56136800D02*
X150173000Y-56136800D01*
X154922800Y-66703200D02*
X154922800Y-56136800D01*
X153203200Y-68481200D02*
G75*
G02*
X152796800Y-68481200I-203200J0D01*
G01*
X152796800Y-68481200D02*
G75*
G02*
X153203200Y-68481200I203200J0D01*
G01*
D11*
%TO.C,J12*%
X119757900Y-38597100D02*
X119757900Y-41257100D01*
X119877900Y-38597100D02*
X119757900Y-38597100D01*
X119877900Y-41257100D02*
X119757900Y-41257100D01*
X122417900Y-39927100D02*
X122417900Y-41257100D01*
X122417900Y-41257100D02*
X121087900Y-41257100D01*
D12*
%TO.C,Q8*%
X66077200Y-55756800D02*
X66077200Y-66323200D01*
X66077200Y-66323200D02*
X70827000Y-66323200D01*
X69531600Y-55883800D02*
X69531600Y-66196200D01*
X70827000Y-55756800D02*
X66077200Y-55756800D01*
X70827000Y-66323200D02*
X70827000Y-55756800D01*
X68203200Y-53978800D02*
G75*
G02*
X67796800Y-53978800I-203200J0D01*
G01*
X67796800Y-53978800D02*
G75*
G02*
X68203200Y-53978800I203200J0D01*
G01*
D11*
%TO.C,R10*%
X101500000Y-111540000D02*
X101500000Y-112310000D01*
X101500000Y-119620000D02*
X101500000Y-118850000D01*
X100130000Y-118850000D02*
X102870000Y-118850000D01*
X102870000Y-112310000D01*
X100130000Y-112310000D01*
X100130000Y-118850000D01*
%TO.C,J13*%
X106757900Y-38597100D02*
X106757900Y-41257100D01*
X106877900Y-38597100D02*
X106757900Y-38597100D01*
X106877900Y-41257100D02*
X106757900Y-41257100D01*
X109417900Y-39927100D02*
X109417900Y-41257100D01*
X109417900Y-41257100D02*
X108087900Y-41257100D01*
%TO.C,J8*%
X177670000Y-67090000D02*
X177670000Y-67210000D01*
X177670000Y-67210000D02*
X180330000Y-67210000D01*
X179000000Y-64550000D02*
X180330000Y-64550000D01*
X180330000Y-64550000D02*
X180330000Y-65880000D01*
X180330000Y-67090000D02*
X180330000Y-67210000D01*
%TO.C,J10*%
X149217900Y-124347100D02*
X149217900Y-127007100D01*
X149337900Y-124347100D02*
X149217900Y-124347100D01*
X149337900Y-127007100D02*
X149217900Y-127007100D01*
X151877900Y-125677100D02*
X151877900Y-127007100D01*
X151877900Y-127007100D02*
X150547900Y-127007100D01*
%TO.C,J6*%
X142670000Y-67590000D02*
X142670000Y-67710000D01*
X142670000Y-67710000D02*
X145330000Y-67710000D01*
X144000000Y-65050000D02*
X145330000Y-65050000D01*
X145330000Y-65050000D02*
X145330000Y-66380000D01*
X145330000Y-67590000D02*
X145330000Y-67710000D01*
%TO.C,R5*%
X178000000Y-75180000D02*
X178000000Y-77140000D01*
X178000000Y-88340000D02*
X178000000Y-86380000D01*
X176280000Y-86380000D02*
X179720000Y-86380000D01*
X179720000Y-77140000D01*
X176280000Y-77140000D01*
X176280000Y-86380000D01*
%TO.C,U5*%
X129845000Y-82630000D02*
X129845000Y-90370000D01*
X129845000Y-90370000D02*
X131495000Y-90370000D01*
X133495000Y-90370000D02*
X135145000Y-90370000D01*
X135145000Y-82630000D02*
X129845000Y-82630000D01*
X135145000Y-90370000D02*
X135145000Y-82630000D01*
X131495000Y-90370000D02*
G75*
G02*
X133495000Y-90370000I1000000J0D01*
G01*
%TO.C,J9*%
X134195000Y-127470000D02*
X134195000Y-135150000D01*
X134195000Y-127470000D02*
X136855000Y-127470000D01*
X134195000Y-135150000D02*
X136855000Y-135150000D01*
X135525000Y-124870000D02*
X136855000Y-124870000D01*
X136855000Y-124870000D02*
X136855000Y-126200000D01*
X136855000Y-127470000D02*
X136855000Y-135150000D01*
%TO.C,J22*%
X80670000Y-82470000D02*
X80670000Y-59550000D01*
X80670000Y-85070000D02*
X80670000Y-83740000D01*
X82000000Y-85070000D02*
X80670000Y-85070000D01*
X83330000Y-59550000D02*
X80670000Y-59550000D01*
X83330000Y-82470000D02*
X80670000Y-82470000D01*
X83330000Y-82470000D02*
X83330000Y-59550000D01*
%TO.C,J7*%
X160170000Y-67090000D02*
X160170000Y-67210000D01*
X160170000Y-67210000D02*
X162830000Y-67210000D01*
X161500000Y-64550000D02*
X162830000Y-64550000D01*
X162830000Y-64550000D02*
X162830000Y-65880000D01*
X162830000Y-67090000D02*
X162830000Y-67210000D01*
%TO.C,R7*%
X143500000Y-74800000D02*
X143500000Y-76760000D01*
X143500000Y-87960000D02*
X143500000Y-86000000D01*
X141780000Y-86000000D02*
X145220000Y-86000000D01*
X145220000Y-76760000D01*
X141780000Y-76760000D01*
X141780000Y-86000000D01*
%TO.C,J29*%
X148620000Y-104120000D02*
X150000000Y-104120000D01*
X148620000Y-105500000D02*
X148620000Y-104120000D01*
X148620000Y-106770000D02*
X148620000Y-106880000D01*
X148620000Y-106770000D02*
X151380000Y-106770000D01*
X148620000Y-106880000D02*
X151380000Y-106880000D01*
X151380000Y-106770000D02*
X151380000Y-106880000D01*
D12*
%TO.C,Q10*%
X66077200Y-80256800D02*
X66077200Y-90823200D01*
X66077200Y-90823200D02*
X70827000Y-90823200D01*
X69531600Y-80383800D02*
X69531600Y-90696200D01*
X70827000Y-80256800D02*
X66077200Y-80256800D01*
X70827000Y-90823200D02*
X70827000Y-80256800D01*
X68203200Y-78478800D02*
G75*
G02*
X67796800Y-78478800I-203200J0D01*
G01*
X67796800Y-78478800D02*
G75*
G02*
X68203200Y-78478800I203200J0D01*
G01*
D11*
%TO.C,R1*%
X150047900Y-143347100D02*
X150047900Y-145307100D01*
X150047900Y-156507100D02*
X150047900Y-154547100D01*
X151767900Y-145307100D02*
X148327900Y-145307100D01*
X148327900Y-154547100D01*
X151767900Y-154547100D01*
X151767900Y-145307100D01*
%TO.C,J19*%
X106170000Y-82590000D02*
X106170000Y-59670000D01*
X106170000Y-85190000D02*
X106170000Y-83860000D01*
X107500000Y-85190000D02*
X106170000Y-85190000D01*
X108830000Y-59670000D02*
X106170000Y-59670000D01*
X108830000Y-82590000D02*
X106170000Y-82590000D01*
X108830000Y-82590000D02*
X108830000Y-59670000D01*
%TO.C,J2*%
X47050000Y-119250000D02*
X61550000Y-119250000D01*
X47050000Y-128450000D02*
X47050000Y-119250000D01*
X55650000Y-128450000D02*
X47050000Y-128450000D01*
X61550000Y-119250000D02*
X61550000Y-121250000D01*
X61550000Y-126450000D02*
X61550000Y-128450000D01*
X61550000Y-128450000D02*
X60250000Y-128450000D01*
X61850000Y-118950000D02*
X60550000Y-118950000D01*
X61850000Y-120650000D02*
X61850000Y-118950000D01*
%TO.C,J4*%
X131302900Y-149779600D02*
X146782900Y-149779600D01*
X131302900Y-152799600D02*
X146782900Y-152799600D01*
X131302900Y-157699600D02*
X146782900Y-157699600D01*
X131302900Y-159199600D02*
X146782900Y-159199600D01*
X131302900Y-159819600D02*
X131302900Y-149779600D01*
X133662900Y-159819600D02*
X131302900Y-159819600D01*
X146782900Y-149779600D02*
X146782900Y-159819600D01*
X146782900Y-159819600D02*
X134262900Y-159819600D01*
X134402900Y-160429600D02*
X133522900Y-160429600D01*
X133962900Y-159819600D01*
X134402900Y-160429600D01*
G36*
X134402900Y-160429600D02*
G01*
X133522900Y-160429600D01*
X133962900Y-159819600D01*
X134402900Y-160429600D01*
G37*
%TO.C,J32*%
X147437900Y-72617100D02*
X147437900Y-76637100D01*
X147437900Y-74117100D02*
X148437900Y-74117100D01*
X147437900Y-76637100D02*
X155157900Y-76637100D01*
X147937900Y-74927100D02*
X147437900Y-74927100D01*
X147937900Y-76137100D02*
X147937900Y-74927100D01*
X148437900Y-74117100D02*
X148437900Y-72617100D01*
X154157900Y-74117100D02*
X154157900Y-72617100D01*
X154657900Y-74927100D02*
X154657900Y-76137100D01*
X154657900Y-76137100D02*
X147937900Y-76137100D01*
X155157900Y-72617100D02*
X147437900Y-72617100D01*
X155157900Y-74117100D02*
X154157900Y-74117100D01*
X155157900Y-74927100D02*
X154657900Y-74927100D01*
X155157900Y-76637100D02*
X155157900Y-72617100D01*
X155457900Y-72317100D02*
X152957900Y-72317100D01*
X155457900Y-74817100D02*
X155457900Y-72317100D01*
%TO.C,SW1*%
X156547900Y-104177100D02*
X156547900Y-105677100D01*
X157797900Y-108177100D02*
X162297900Y-108177100D01*
X162297900Y-101677100D02*
X157797900Y-101677100D01*
X163547900Y-105677100D02*
X163547900Y-104177100D01*
D12*
%TO.C,Q9*%
X66077200Y-68256800D02*
X66077200Y-78823200D01*
X66077200Y-78823200D02*
X70827000Y-78823200D01*
X69531600Y-68383800D02*
X69531600Y-78696200D01*
X70827000Y-68256800D02*
X66077200Y-68256800D01*
X70827000Y-78823200D02*
X70827000Y-68256800D01*
X68203200Y-66478800D02*
G75*
G02*
X67796800Y-66478800I-203200J0D01*
G01*
X67796800Y-66478800D02*
G75*
G02*
X68203200Y-66478800I203200J0D01*
G01*
D11*
%TO.C,J33*%
X129937900Y-73117100D02*
X129937900Y-77137100D01*
X129937900Y-74617100D02*
X130937900Y-74617100D01*
X129937900Y-77137100D02*
X137657900Y-77137100D01*
X130437900Y-75427100D02*
X129937900Y-75427100D01*
X130437900Y-76637100D02*
X130437900Y-75427100D01*
X130937900Y-74617100D02*
X130937900Y-73117100D01*
X136657900Y-74617100D02*
X136657900Y-73117100D01*
X137157900Y-75427100D02*
X137157900Y-76637100D01*
X137157900Y-76637100D02*
X130437900Y-76637100D01*
X137657900Y-73117100D02*
X129937900Y-73117100D01*
X137657900Y-74617100D02*
X136657900Y-74617100D01*
X137657900Y-75427100D02*
X137157900Y-75427100D01*
X137657900Y-77137100D02*
X137657900Y-73117100D01*
X137957900Y-72817100D02*
X135457900Y-72817100D01*
X137957900Y-75317100D02*
X137957900Y-72817100D01*
%TO.C,R3*%
X164047900Y-143347100D02*
X164047900Y-145307100D01*
X164047900Y-156507100D02*
X164047900Y-154547100D01*
X162327900Y-154547100D02*
X165767900Y-154547100D01*
X165767900Y-145307100D01*
X162327900Y-145307100D01*
X162327900Y-154547100D01*
%TO.C,U3*%
X103630000Y-98845000D02*
X103630000Y-100495000D01*
X103630000Y-102495000D02*
X103630000Y-104145000D01*
X103630000Y-104145000D02*
X111370000Y-104145000D01*
X111370000Y-98845000D02*
X103630000Y-98845000D01*
X111370000Y-104145000D02*
X111370000Y-98845000D01*
X103630000Y-100495000D02*
G75*
G02*
X103630000Y-102495000I0J-1000000D01*
G01*
%TO.C,J1*%
X106887900Y-149607100D02*
X122367900Y-149607100D01*
X106887900Y-152627100D02*
X122367900Y-152627100D01*
X106887900Y-157527100D02*
X122367900Y-157527100D01*
X106887900Y-159027100D02*
X122367900Y-159027100D01*
X106887900Y-159647100D02*
X106887900Y-149607100D01*
X109247900Y-159647100D02*
X106887900Y-159647100D01*
X122367900Y-149607100D02*
X122367900Y-159647100D01*
X122367900Y-159647100D02*
X109847900Y-159647100D01*
X109987900Y-160257100D02*
X109107900Y-160257100D01*
X109547900Y-159647100D01*
X109987900Y-160257100D01*
G36*
X109987900Y-160257100D02*
G01*
X109107900Y-160257100D01*
X109547900Y-159647100D01*
X109987900Y-160257100D01*
G37*
%TO.C,J17*%
X58170000Y-72210000D02*
X58170000Y-72330000D01*
X58170000Y-72330000D02*
X60830000Y-72330000D01*
X59500000Y-69670000D02*
X60830000Y-69670000D01*
X60830000Y-69670000D02*
X60830000Y-71000000D01*
X60830000Y-72210000D02*
X60830000Y-72330000D01*
%TO.C,R11*%
X117460000Y-116500000D02*
X118230000Y-116500000D01*
X125540000Y-116500000D02*
X124770000Y-116500000D01*
X118230000Y-115130000D02*
X124770000Y-115130000D01*
X124770000Y-117870000D01*
X118230000Y-117870000D01*
X118230000Y-115130000D01*
%TO.C,R17*%
X192500000Y-92540000D02*
X192500000Y-94500000D01*
X192500000Y-105700000D02*
X192500000Y-103740000D01*
X190780000Y-103740000D02*
X194220000Y-103740000D01*
X194220000Y-94500000D01*
X190780000Y-94500000D01*
X190780000Y-103740000D01*
%TO.C,J21*%
X88170000Y-82550000D02*
X88170000Y-59630000D01*
X88170000Y-85150000D02*
X88170000Y-83820000D01*
X89500000Y-85150000D02*
X88170000Y-85150000D01*
X90830000Y-59630000D02*
X88170000Y-59630000D01*
X90830000Y-82550000D02*
X88170000Y-82550000D01*
X90830000Y-82550000D02*
X90830000Y-59630000D01*
%TO.C,R4*%
X160000000Y-74800000D02*
X160000000Y-76760000D01*
X160000000Y-87960000D02*
X160000000Y-86000000D01*
X158280000Y-86000000D02*
X161720000Y-86000000D01*
X161720000Y-76760000D01*
X158280000Y-76760000D01*
X158280000Y-86000000D01*
%TO.C,J18*%
X58170000Y-82210000D02*
X58170000Y-82330000D01*
X58170000Y-82330000D02*
X60830000Y-82330000D01*
X59500000Y-79670000D02*
X60830000Y-79670000D01*
X60830000Y-79670000D02*
X60830000Y-81000000D01*
X60830000Y-82210000D02*
X60830000Y-82330000D01*
%TO.C,J3*%
X126167900Y-149547100D02*
X126167900Y-152307100D01*
X126277900Y-149547100D02*
X126167900Y-149547100D01*
X126277900Y-149547100D02*
X126277900Y-152307100D01*
X126277900Y-152307100D02*
X126167900Y-152307100D01*
X127547900Y-149547100D02*
X128927900Y-149547100D01*
X128927900Y-149547100D02*
X128927900Y-150927100D01*
%TO.C,R15*%
X147467900Y-114927100D02*
X149427900Y-114927100D01*
X160627900Y-114927100D02*
X158667900Y-114927100D01*
X158667900Y-116647100D02*
X149427900Y-116647100D01*
X149427900Y-113207100D01*
X158667900Y-113207100D01*
X158667900Y-116647100D01*
D12*
%TO.C,Q1*%
X132173000Y-56136800D02*
X132173000Y-66703200D01*
X132173000Y-66703200D02*
X136922800Y-66703200D01*
X133468400Y-66576200D02*
X133468400Y-56263800D01*
X136922800Y-56136800D02*
X132173000Y-56136800D01*
X136922800Y-66703200D02*
X136922800Y-56136800D01*
X135203200Y-68481200D02*
G75*
G02*
X134796800Y-68481200I-203200J0D01*
G01*
X134796800Y-68481200D02*
G75*
G02*
X135203200Y-68481200I203200J0D01*
G01*
D11*
%TO.C,J30*%
X179667900Y-59307100D02*
X179667900Y-57927100D01*
X181047900Y-59307100D02*
X179667900Y-59307100D01*
X182317900Y-56547100D02*
X184967900Y-56547100D01*
X182317900Y-59307100D02*
X182317900Y-56547100D01*
X182317900Y-59307100D02*
X184967900Y-59307100D01*
X184967900Y-59307100D02*
X184967900Y-56547100D01*
%TO.C,J11*%
X97170000Y-82590000D02*
X97170000Y-59670000D01*
X97170000Y-85190000D02*
X97170000Y-83860000D01*
X98500000Y-85190000D02*
X97170000Y-85190000D01*
X99830000Y-59670000D02*
X97170000Y-59670000D01*
X99830000Y-82590000D02*
X97170000Y-82590000D01*
X99830000Y-82590000D02*
X99830000Y-59670000D01*
%TO.C,R13*%
X170087900Y-131427100D02*
X172047900Y-131427100D01*
X183247900Y-131427100D02*
X181287900Y-131427100D01*
X172047900Y-129707100D02*
X181287900Y-129707100D01*
X181287900Y-133147100D01*
X172047900Y-133147100D01*
X172047900Y-129707100D01*
%TO.C,J14*%
X83217900Y-42637100D02*
X83217900Y-42757100D01*
X83217900Y-42757100D02*
X85877900Y-42757100D01*
X84547900Y-40097100D02*
X85877900Y-40097100D01*
X85877900Y-40097100D02*
X85877900Y-41427100D01*
X85877900Y-42637100D02*
X85877900Y-42757100D01*
%TO.C,R14*%
X192547900Y-113847100D02*
X192547900Y-115807100D01*
X192547900Y-127007100D02*
X192547900Y-125047100D01*
X190827900Y-125047100D02*
X194267900Y-125047100D01*
X194267900Y-115807100D01*
X190827900Y-115807100D01*
X190827900Y-125047100D01*
%TO.C,J16*%
X58670000Y-59710000D02*
X58670000Y-59830000D01*
X58670000Y-59830000D02*
X61330000Y-59830000D01*
X60000000Y-57170000D02*
X61330000Y-57170000D01*
X61330000Y-57170000D02*
X61330000Y-58500000D01*
X61330000Y-59710000D02*
X61330000Y-59830000D01*
%TO.C,U2*%
X89130000Y-98560000D02*
X89130000Y-100210000D01*
X89130000Y-102210000D02*
X89130000Y-103860000D01*
X89130000Y-103860000D02*
X96870000Y-103860000D01*
X96870000Y-98560000D02*
X89130000Y-98560000D01*
X96870000Y-103860000D02*
X96870000Y-98560000D01*
X89130000Y-100210000D02*
G75*
G02*
X89130000Y-102210000I0J-1000000D01*
G01*
%TO.C,R9*%
X93000000Y-111040000D02*
X93000000Y-111810000D01*
X93000000Y-119120000D02*
X93000000Y-118350000D01*
X91630000Y-118350000D02*
X94370000Y-118350000D01*
X94370000Y-111810000D01*
X91630000Y-111810000D01*
X91630000Y-118350000D01*
%TO.C,U4*%
X118630000Y-98845000D02*
X118630000Y-100495000D01*
X118630000Y-102495000D02*
X118630000Y-104145000D01*
X118630000Y-104145000D02*
X126370000Y-104145000D01*
X126370000Y-98845000D02*
X118630000Y-98845000D01*
X126370000Y-104145000D02*
X126370000Y-98845000D01*
X118630000Y-100495000D02*
G75*
G02*
X118630000Y-102495000I0J-1000000D01*
G01*
%TO.C,R12*%
X147467900Y-131427100D02*
X149427900Y-131427100D01*
X160627900Y-131427100D02*
X158667900Y-131427100D01*
X158667900Y-133147100D02*
X149427900Y-133147100D01*
X149427900Y-129707100D01*
X158667900Y-129707100D01*
X158667900Y-133147100D01*
%TO.C,J31*%
X164937900Y-73117100D02*
X164937900Y-77137100D01*
X164937900Y-74617100D02*
X165937900Y-74617100D01*
X164937900Y-77137100D02*
X172657900Y-77137100D01*
X165437900Y-75427100D02*
X164937900Y-75427100D01*
X165437900Y-76637100D02*
X165437900Y-75427100D01*
X165937900Y-74617100D02*
X165937900Y-73117100D01*
X171657900Y-74617100D02*
X171657900Y-73117100D01*
X172157900Y-75427100D02*
X172157900Y-76637100D01*
X172157900Y-76637100D02*
X165437900Y-76637100D01*
X172657900Y-73117100D02*
X164937900Y-73117100D01*
X172657900Y-74617100D02*
X171657900Y-74617100D01*
X172657900Y-75427100D02*
X172157900Y-75427100D01*
X172657900Y-77137100D02*
X172657900Y-73117100D01*
X172957900Y-72817100D02*
X170457900Y-72817100D01*
X172957900Y-75317100D02*
X172957900Y-72817100D01*
D12*
%TO.C,Q3*%
X167125100Y-56669700D02*
X167125100Y-67236100D01*
X167125100Y-67236100D02*
X171874900Y-67236100D01*
X168420500Y-67109100D02*
X168420500Y-56796700D01*
X171874900Y-56669700D02*
X167125100Y-56669700D01*
X171874900Y-67236100D02*
X171874900Y-56669700D01*
X170155300Y-69014100D02*
G75*
G02*
X169748900Y-69014100I-203200J0D01*
G01*
X169748900Y-69014100D02*
G75*
G02*
X170155300Y-69014100I203200J0D01*
G01*
%TO.C,Q7*%
X66125100Y-43643900D02*
X66125100Y-54210300D01*
X66125100Y-54210300D02*
X70874900Y-54210300D01*
X69579500Y-43770900D02*
X69579500Y-54083300D01*
X70874900Y-43643900D02*
X66125100Y-43643900D01*
X70874900Y-54210300D02*
X70874900Y-43643900D01*
X68251100Y-41865900D02*
G75*
G02*
X67844700Y-41865900I-203200J0D01*
G01*
X67844700Y-41865900D02*
G75*
G02*
X68251100Y-41865900I203200J0D01*
G01*
D11*
%TO.C,R16*%
X168587900Y-114927100D02*
X170547900Y-114927100D01*
X181747900Y-114927100D02*
X179787900Y-114927100D01*
X170547900Y-113207100D02*
X179787900Y-113207100D01*
X179787900Y-116647100D01*
X170547900Y-116647100D01*
X170547900Y-113207100D01*
D12*
%TO.C,Q6*%
X76804700Y-46504300D02*
X76804700Y-51254100D01*
X76804700Y-51254100D02*
X87371100Y-51254100D01*
X87244100Y-49958700D02*
X76931700Y-49958700D01*
X87371100Y-46504300D02*
X76804700Y-46504300D01*
X87371100Y-51254100D02*
X87371100Y-46504300D01*
X89352300Y-48427100D02*
G75*
G02*
X88945900Y-48427100I-203200J0D01*
G01*
X88945900Y-48427100D02*
G75*
G02*
X89352300Y-48427100I203200J0D01*
G01*
D11*
%TO.C,J5*%
X149302900Y-137192100D02*
X149302900Y-137317100D01*
X149362335Y-137192100D02*
X149302900Y-137192100D01*
X150792900Y-137192100D02*
X149302900Y-137192100D01*
X150792900Y-137192100D02*
X150733465Y-137192100D01*
X150792900Y-137192100D02*
X150792900Y-137317100D01*
X150792900Y-137927100D02*
X150792900Y-138662100D01*
X150792900Y-138662100D02*
X150047900Y-138662100D01*
%TO.C,R2*%
X157047900Y-143347100D02*
X157047900Y-145307100D01*
X157047900Y-156507100D02*
X157047900Y-154547100D01*
X158767900Y-145307100D02*
X155327900Y-145307100D01*
X155327900Y-154547100D01*
X158767900Y-154547100D01*
X158767900Y-145307100D01*
%TO.C,J15*%
X58170000Y-45210000D02*
X58170000Y-45330000D01*
X58170000Y-45330000D02*
X60830000Y-45330000D01*
X59500000Y-42670000D02*
X60830000Y-42670000D01*
X60830000Y-42670000D02*
X60830000Y-44000000D01*
X60830000Y-45210000D02*
X60830000Y-45330000D01*
D12*
%TO.C,Q5*%
X100264700Y-46004300D02*
X100264700Y-50754100D01*
X100264700Y-50754100D02*
X110831100Y-50754100D01*
X110704100Y-49458700D02*
X100391700Y-49458700D01*
X110831100Y-46004300D02*
X100264700Y-46004300D01*
X110831100Y-50754100D02*
X110831100Y-46004300D01*
X112812300Y-47927100D02*
G75*
G02*
X112405900Y-47927100I-203200J0D01*
G01*
X112405900Y-47927100D02*
G75*
G02*
X112812300Y-47927100I203200J0D01*
G01*
D11*
%TO.C,R6*%
X77000000Y-111460000D02*
X77000000Y-112230000D01*
X77000000Y-119540000D02*
X77000000Y-118770000D01*
X75630000Y-118770000D02*
X78370000Y-118770000D01*
X78370000Y-112230000D01*
X75630000Y-112230000D01*
X75630000Y-118770000D01*
%TO.C,J23*%
X96670000Y-127670000D02*
X98000000Y-127670000D01*
X96670000Y-129000000D02*
X96670000Y-127670000D01*
X99270000Y-127670000D02*
X109490000Y-127670000D01*
X99270000Y-130330000D02*
X99270000Y-127670000D01*
X99270000Y-130330000D02*
X109490000Y-130330000D01*
X109490000Y-130330000D02*
X109490000Y-127670000D01*
%TO.C,R8*%
X85000000Y-110960000D02*
X85000000Y-111730000D01*
X85000000Y-119040000D02*
X85000000Y-118270000D01*
X83630000Y-118270000D02*
X86370000Y-118270000D01*
X86370000Y-111730000D01*
X83630000Y-111730000D01*
X83630000Y-118270000D01*
%TD*%
M02*
